<?xml version="1.0" encoding="UTF-8" standalone="no"?>
<!-- Created with Inkscape (http://www.inkscape.org/) -->

<svg
   width="195.19702mm"
   height="112.3877mm"
   viewBox="0 0 195.19702 112.3877"
   version="1.1"
   id="svg5"
   xml:space="preserve"
   inkscape:version="1.2 (dc2aedaf03, 2022-05-15)"
   sodipodi:docname="geneva_mechanism.svg"
   inkscape:export-filename="geneva_mechanism_export.svg"
   inkscape:export-xdpi="96"
   inkscape:export-ydpi="96"
   xmlns:inkscape="http://www.inkscape.org/namespaces/inkscape"
   xmlns:sodipodi="http://sodipodi.sourceforge.net/DTD/sodipodi-0.dtd"
   xmlns="http://www.w3.org/2000/svg"
   xmlns:svg="http://www.w3.org/2000/svg"><sodipodi:namedview
     id="namedview7"
     pagecolor="#ffffff"
     bordercolor="#000000"
     borderopacity="0.25"
     inkscape:showpageshadow="2"
     inkscape:pageopacity="0.0"
     inkscape:pagecheckerboard="0"
     inkscape:deskcolor="#d1d1d1"
     inkscape:document-units="mm"
     showgrid="false"
     inkscape:zoom="0.64693624"
     inkscape:cx="275.91591"
     inkscape:cy="349.33891"
     inkscape:window-width="1541"
     inkscape:window-height="1139"
     inkscape:window-x="1565"
     inkscape:window-y="222"
     inkscape:window-maximized="0"
     inkscape:current-layer="layer1" /><defs
     id="defs2" /><g
     inkscape:label="Layer 1"
     inkscape:groupmode="layer"
     id="layer1"
     transform="translate(-7.5316507,-4.5368379)"><path
       id="path183"
       style="display:inline;fill:#000000;stroke-width:0.264583"
       d="m 24.333726,18.294804 -0.977718,0.549837 c -0.537952,0.30235 -1.320203,0.82622 -1.737878,1.16427 l -0.759127,0.614949 9.690365,9.739458 c 10.788458,10.842949 10.700714,10.726792 10.662914,14.139188 -0.02607,2.353608 -0.995604,4.36814 -2.781743,5.780009 -1.606403,1.269789 -2.833721,1.701057 -4.871536,1.712557 -3.226482,0.01825 -3.225514,0.01924 -13.974341,-10.671183 L 9.843654,31.636108 9.230772,32.395235 c -0.33723,0.41768 -0.85738,1.194147 -1.156002,1.725476 L 7.5316508,35.08706 9.056105,37.369608 c 4.842662,7.250823 7.142937,15.989644 6.383073,24.249169 -0.316335,3.43851 -1.340581,8.149655 -1.986442,9.135365 -0.220388,0.33635 -0.327084,0.68524 -0.237195,0.77514 0.263179,0.26318 -2.613552,6.01238 -4.140315,8.27495 -0.770797,1.14227 -1.4001812,2.20185 -1.3988812,2.35438 0.0014,0.15253 0.3924212,0.90868 0.8691972,1.68052 0.621038,1.00536 1.008059,1.38051 1.364775,1.32291 0.273857,-0.0442 4.694729,-4.26214 9.824206,-9.37307 6.115138,-6.09302 9.725191,-9.493905 10.484632,-9.877955 4.045607,-2.04589 9.449354,0.31437 10.686169,4.667935 0.449661,1.58279 0.37728,3.78483 -0.172083,5.24258 -0.429767,1.1404 -1.807809,2.63786 -9.98802,10.85567 -5.219205,5.24319 -9.489343,9.720271 -9.489343,9.948741 0,0.43271 2.410708,2.08205 3.043225,2.08205 0.199298,0 1.352259,-0.66514 2.562118,-1.47795 4.168566,-2.800511 9.426751,-4.910161 14.575853,-5.848221 3.237819,-0.58952 9.522769,-0.58707 12.818339,0.006 5.193918,0.93418 10.341728,3.01888 14.789279,5.989301 v -5.2e-4 c 1.282096,0.85629 2.454355,1.4833 2.605009,1.3932 1.646324,-0.98506 3.05201,-1.96986 3.05201,-2.13837 0,-0.11467 -4.231712,-4.427411 -9.40356,-9.583391 -9.941658,-9.91116 -10.506144,-10.6012 -10.872206,-13.29067 -0.162682,-1.19522 0.02062,-2.20463 0.770497,-4.24625 0.36771,-1.00111 2.673388,-3.346565 3.289722,-3.346565 0.268109,0 0.781733,-0.20837 1.141532,-0.46303 0.489159,-0.34621 1.154808,-0.4591 2.638599,-0.447 3.205462,0.0261 3.426717,0.19626 13.889074,10.681015 5.092446,5.10333 9.459558,9.27902 9.704318,9.27902 0.591929,0 2.243578,-2.86137 1.913578,-3.31505 -5.466615,-7.51546 -8.04447,-14.97069 -8.04447,-23.263695 0,-5.675678 1.118507,-10.663611 3.571358,-15.924096 1.144139,-2.453777 3.182969,-5.827672 4.171838,-6.903971 0.52703,-0.57365 0.529569,-0.621205 0.08475,-1.607654 -0.25208,-0.558989 -0.740319,-1.364452 -1.084689,-1.790072 l -0.625801,-0.773916 -9.607166,9.578744 C 65.495807,51.926641 65.436046,51.972387 62.124701,51.986287 c -4.395332,0.01845 -7.653062,-3.240643 -7.646562,-7.650179 0.0049,-3.329726 0.05463,-3.395587 10.710458,-14.024467 5.232058,-5.218825 9.513114,-9.580115 9.513114,-9.691915 0,-0.1118 -0.506016,-0.548463 -1.124479,-0.970483 -2.225316,-1.518469 -2.029655,-1.52364 -4.438489,0.116789 -2.81143,1.914598 -7.4276,4.119337 -10.444323,4.988326 -11.114895,3.201697 -22.578939,1.428457 -32.137057,-4.970756 z m 23.360847,32.868794 c 1.751486,-0.01951 3.531342,0.591955 4.995561,1.908411 1.355282,1.218518 2.615297,3.322298 2.297535,3.836458 -0.09634,0.15588 -0.03233,0.455816 0.142627,0.666626 0.414125,0.498994 0.103069,3.140934 -0.421163,3.576014 -0.209086,0.17351 -0.380339,0.54155 -0.380339,0.81803 0,0.65254 -2.045953,2.87218 -2.647384,2.87218 -0.254688,0 -0.604373,0.17053 -0.777214,0.37879 -0.172841,0.20826 -0.907711,0.50592 -1.632975,0.66146 -1.438723,0.30852 -1.521778,0.30941 -2.879927,0.0341 -2.205062,-0.44698 -4.59213,-2.39126 -5.495789,-4.47673 -0.61674,-1.42332 -0.558084,-4.380399 0.116272,-5.858038 1.28744,-2.821025 3.950479,-4.386868 6.682796,-4.417301 z" /><path
       style="display:inline;fill:#000000;stroke-width:0.264583"
       d="m 144.84556,68.143232 c -1.99499,-0.5371 -2.76945,-0.99905 -3.97948,-2.373719 -4.05922,-4.611513 -1.31748,-11.718373 4.90467,-12.713333 1.56686,-0.25055 4.40822,0.66161 5.81693,1.86742 1.19697,1.02456 2.5722,3.49782 2.31607,4.16529 -0.0876,0.22836 -0.0321,0.4938 0.1233,0.58987 0.43553,0.26917 0.33607,1.75732 -0.22679,3.393293 -0.51855,1.50719 -1.51638,3.10014 -1.94195,3.10014 -0.12935,0 -0.57404,0.338869 -0.98821,0.753029 -0.52043,0.52044 -1.31094,0.8884 -2.55933,1.19132 -0.99347,0.24106 -1.86584,0.43014 -1.9386,0.42018 -0.0728,-0.01 -0.75973,-0.18702 -1.52661,-0.39349 z"
       id="path356" /><path
       style="display:inline;fill:#000000;stroke-width:0.264583"
       d="M 172.17661,81.716472 C 167.0099,70.913132 165.93242,59.44905 169.0081,48.00467 c 1.20799,-4.49482 4.46451,-11.73039 5.27952,-11.73039 0.8969,0 4.88938,6.25624 6.48253,10.15817 3.87905,9.50057 3.82597,19.583103 -0.1529,29.042982 -1.4508,3.44933 -5.58666,9.74676 -6.40122,9.74676 -0.20474,0 -1.09325,-1.52732 -2.03942,-3.50572 z"
       id="path354" /><path
       style="display:none;fill:#000000;stroke-width:0.264583"
       d="m 153.72938,105.12089 c 1.97639,-0.73947 3.6938,-2.5951 4.28548,-4.6304 0.41526,-1.428453 0.41406,-1.622013 -0.0201,-3.225923 -0.60194,-2.22375 -2.34712,-4.08089 -4.41076,-4.69373 -1.80755,-0.53678 -2.55408,-0.51281 -4.29315,0.13786 -1.72635,0.64591 -3.59056,2.54854 -4.0722,4.15612 -1.03033,3.438913 1.02636,7.336003 4.42392,8.382613 1.68134,0.51793 2.42592,0.49488 4.08681,-0.12654 z"
       id="path350" /><g
       id="g1039"
       transform="translate(41.684727,-38.163347)"><path
         id="path348"
         style="display:inline;fill:#000000;stroke-width:0.264583"
         d="m 104.96879,42.700236 c -2.46589,0.0011 -4.95027,0.09048 -6.575829,0.268201 -10.3824,1.135089 -20.243158,5.248521 -29.027169,12.108305 -2.364285,1.846358 -6.970588,6.535966 -8.906433,9.067663 -3.612313,4.724175 -7.258533,11.553293 -9.061979,16.972608 -0.947577,2.847437 -2.272213,8.751595 -2.272213,10.126513 v 0.731738 l 1.5906,-0.165881 c 0.874914,-0.09144 2.095305,-0.418511 2.71198,-0.726571 0.723846,-0.361609 4.498721,-3.92614 10.651029,-10.057784 5.241382,-5.223754 9.663724,-9.497611 9.827824,-9.497611 0.22482,0 1.351776,1.541908 2.076876,2.841687 0.01951,0.03499 1.114824,-0.991135 2.433443,-2.279964 2.396278,-2.342148 6.766041,-5.487273 9.569958,-6.887952 10.37422,-5.182365 23.252763,-5.230788 33.465653,-0.125574 4.86803,2.433428 10.58042,7.082837 13.54233,11.022583 6.64564,8.839622 9.23964,20.477667 6.8554,30.758333 -1.70842,7.36656 -4.90049,13.14481 -10.15856,18.39009 -5.75926,5.74524 -11.70884,8.95967 -19.5957,10.58643 -5.1232,1.05673 -12.492188,0.73781 -17.727083,-0.76739 -5.962274,-1.71436 -12.023531,-5.33644 -16.367477,-9.7808 -1.479808,-1.51402 -1.999085,-1.9022 -2.161625,-1.61541 -0.730009,1.28807 -1.531973,2.23879 -1.957503,2.32079 -0.35335,0.068 -3.143345,-2.54957 -9.912573,-9.30021 -6.36099,-6.3435 -9.801134,-9.58453 -10.592119,-9.9782 -0.644307,-0.32068 -1.8647,-0.64563 -2.711979,-0.72243 l -1.540474,-0.14005 0.0021,0.7643 c 0.0012,0.42039 0.297722,2.19356 0.659391,3.93981 2.150912,10.38521 7.592064,20.50478 15.08125,28.04997 9.131708,9.2 21.88043,15.21378 34.660417,16.34939 2.456875,0.21828 9.073865,0.16206 11.453565,-0.0972 7.78209,-0.8477 14.45577,-2.99137 21.51755,-6.91224 10.00256,-5.55366 17.71702,-13.70451 22.86682,-24.16079 4.03935,-8.20163 5.67769,-15.37842 5.67769,-24.870838 0,-9.004031 -1.53139,-16.164678 -5.05861,-23.659021 -5.7634,-12.245623 -14.46447,-21.095834 -26.5591,-27.013338 -5.79502,-2.835305 -11.67341,-4.559331 -17.99167,-5.276681 -1.55202,-0.17631 -3.99987,-0.263663 -6.46575,-0.262516 z m 46.67777,50.525598 c 1.58172,0.01732 3.16625,0.650864 4.29173,1.932699 1.55689,1.773218 1.80212,4.058843 0.67386,6.283857 -1.01609,2.00376 -2.45789,2.96854 -4.6359,3.10265 -1.41796,0.0873 -1.85124,-0.005 -3.10317,-0.66042 -1.98432,-1.03899 -2.89539,-2.64507 -2.90421,-5.119589 -0.005,-1.472119 0.11164,-1.920282 0.77463,-2.965711 1.08926,-1.717579 2.99409,-2.594385 4.90306,-2.573486 z" /></g></g></svg>
