  0
SECTION
  2
HEADER
  9
$ACADVER
  1
AC1014
  9
$HANDSEED
  5
FFFF
  9
$MEASUREMENT
 70
     1
  0
ENDSEC
  0
SECTION
  2
TABLES
  0
TABLE
  2
VPORT
  5
8
330
0
100
AcDbSymbolTable
 70
     4
  0
VPORT
  5
2E
330
8
100
AcDbSymbolTableRecord
100
AcDbViewportTableRecord
  2
*ACTIVE
 70
     0
 10
0.0
 20
0.0
 11
1.0
 21
1.0
 12
210.0
 22
148.5
 13
0.0
 23
0.0
 14
10.0
 24
10.0
 15
10.0
 25
10.0
 16
0.0
 26
0.0
 36
1.0
 17
0.0
 27
0.0
 37
0.0
 40
341.0
 41
1.24
 42
50.0
 43
0.0
 44
0.0
 50
0.0
 51
0.0
 71
     0
 72
   100
 73
     1
 74
     3
 75
     0
 76
     0
 77
     0
 78
     0
  0
ENDTAB
  0
TABLE
  2
LTYPE
  5
5
330
0
100
AcDbSymbolTable
 70
     1
  0
LTYPE
  5
14
330
5
100
AcDbSymbolTableRecord
100
AcDbLinetypeTableRecord
  2
BYBLOCK
 70
     0
  3

 72
    65
 73
     0
 40
0.0
  0
LTYPE
  5
15
330
5
100
AcDbSymbolTableRecord
100
AcDbLinetypeTableRecord
  2
BYLAYER
 70
     0
  3

 72
    65
 73
     0
 40
0.0
  0
LTYPE
  5
16
330
5
100
AcDbSymbolTableRecord
100
AcDbLinetypeTableRecord
  2
CONTINUOUS
 70
     0
  3
Solid line
 72
    65
 73
     0
 40
0.0
  0
ENDTAB
  0
TABLE
  2
LAYER
  5
2
100
AcDbSymbolTable
 70
2
  0
LAYER
  5
50
100
AcDbSymbolTableRecord
100
AcDbLayerTableRecord
  2
0
 70
0
  6
CONTINUOUS
  0
LAYER
  5
51
100
AcDbSymbolTableRecord
100
AcDbLayerTableRecord
  2
Layer_1
 70
0
  6
CONTINUOUS
  0
ENDTAB
  0
TABLE
  2
STYLE
  5
3
330
0
100
AcDbSymbolTable
 70
     1
  0
STYLE
  5
11
330
3
100
AcDbSymbolTableRecord
100
AcDbTextStyleTableRecord
  2
STANDARD
 70
     0
 40
0.0
 41
1.0
 50
0.0
 71
     0
 42
2.5
  3
txt
  4

  0
ENDTAB
  0
TABLE
  2
VIEW
  5
6
330
0
100
AcDbSymbolTable
 70
     0
  0
ENDTAB
  0
TABLE
  2
UCS
  5
7
330
0
100
AcDbSymbolTable
 70
     0
  0
ENDTAB
  0
TABLE
  2
APPID
  5
9
330
0
100
AcDbSymbolTable
 70
     2
  0
APPID
  5
12
330
9
100
AcDbSymbolTableRecord
100
AcDbRegAppTableRecord
  2
ACAD
 70
     0
  0
ENDTAB
  0
TABLE
  2
DIMSTYLE
  5
A
330
0
100
AcDbSymbolTable
 70
     1
  0
DIMSTYLE
105
27
330
A
100
AcDbSymbolTableRecord
100
AcDbDimStyleTableRecord
  2
ISO-25
 70
     0
  3

  4

  5

  6

  7

 40
1.0
 41
2.5
 42
0.625
 43
3.75
 44
1.25
 45
0.0
 46
0.0
 47
0.0
 48
0.0
140
2.5
141
2.5
142
0.0
143
0.03937007874016
144
1.0
145
0.0
146
1.0
147
0.625
 71
     0
 72
     0
 73
     0
 74
     0
 75
     0
 76
     0
 77
     1
 78
     8
170
     0
171
     3
172
     1
173
     0
174
     0
175
     0
176
     0
177
     0
178
     0
270
     2
271
     2
272
     2
273
     2
274
     3
340
11
275
     0
280
     0
281
     0
282
     0
283
     0
284
     8
285
     0
286
     0
287
     3
288
     0
  0
ENDTAB
  0
TABLE
  2
BLOCK_RECORD
  5
1
330
0
100
AcDbSymbolTable
 70
     1
  0
BLOCK_RECORD
  5
1F
330
1
100
AcDbSymbolTableRecord
100
AcDbBlockTableRecord
  2
*MODEL_SPACE
  0
BLOCK_RECORD
  5
1B
330
1
100
AcDbSymbolTableRecord
100
AcDbBlockTableRecord
  2
*PAPER_SPACE
  0
ENDTAB
  0
ENDSEC
  0
SECTION
  2
BLOCKS
  0
BLOCK
  5
20
330
1F
100
AcDbEntity
  8
0
100
AcDbBlockBegin
  2
*MODEL_SPACE
 70
     0
 10
0.0
 20
0.0
 30
0.0
  3
*MODEL_SPACE
  1

  0
ENDBLK
  5
21
330
1F
100
AcDbEntity
  8
0
100
AcDbBlockEnd
  0
BLOCK
  5
1C
330
1B
100
AcDbEntity
 67
     1
  8
0
100
AcDbBlockBegin
  2
*PAPER_SPACE
  1

  0
ENDBLK
  5
1D
330
1B
100
AcDbEntity
 67
     1
  8
0
100
AcDbBlockEnd
  0
ENDSEC
  0
SECTION
  2
ENTITIES
  0
SPLINE
  5
100
100
AcDbEntity
  8
Layer_1
 62
7
100
AcDbSpline
 70
8
 71
3
 72
8
 73
4
 74
0
 40
0
 40
0
 40
0
 40
0
 40
1
 40
1
 40
1
 40
1
 10
66.206007
 20
788.471884
 30
0.0
 10
64.681104
 20
787.614829
 30
0.0
 10
62.463699
 20
786.129843
 30
0.0
 10
61.279739
 20
785.171591
 30
0.0
  0
LWPOLYLINE
  5
101
100
AcDbEntity
  8
Layer_1
 62
7
100
AcDbPolyline
 90
2
 70
0
 10
68.977491
 20
790.030477
 30
0.0
 10
66.206007
 20
788.471884
 30
0.0
  0
SPLINE
  5
102
100
AcDbEntity
  8
Layer_1
 62
7
100
AcDbSpline
 70
8
 71
3
 72
8
 73
4
 74
0
 40
0
 40
0
 40
0
 40
0
 40
1
 40
1
 40
1
 40
1
 10
86.596634
 20
755.820516
 30
0.0
 10
117.178089
 20
725.084597
 30
0.0
 10
116.929366
 20
725.413861
 30
0.0
 10
116.822217
 20
715.740928
 30
0.0
  0
SPLINE
  5
103
100
AcDbEntity
  8
Layer_1
 62
7
100
AcDbSpline
 70
8
 71
3
 72
8
 73
4
 74
0
 40
0
 40
0
 40
0
 40
0
 40
1
 40
1
 40
1
 40
1
 10
116.822217
 20
715.740928
 30
0.0
 10
116.748317
 20
709.069283
 30
0.0
 10
114.000032
 20
703.358799
 30
0.0
 10
108.936961
 20
699.356650
 30
0.0
  0
SPLINE
  5
104
100
AcDbEntity
  8
Layer_1
 62
7
100
AcDbSpline
 70
8
 71
3
 72
8
 73
4
 74
0
 40
0
 40
0
 40
0
 40
0
 40
1
 40
1
 40
1
 40
1
 10
108.936961
 20
699.356650
 30
0.0
 10
104.383378
 20
695.757249
 30
0.0
 10
100.904366
 20
694.534757
 30
0.0
 10
95.127883
 20
694.502158
 30
0.0
  0
SPLINE
  5
105
100
AcDbEntity
  8
Layer_1
 62
7
100
AcDbSpline
 70
8
 71
3
 72
8
 73
4
 74
0
 40
0
 40
0
 40
0
 40
0
 40
1
 40
1
 40
1
 40
1
 10
95.127883
 20
694.502158
 30
0.0
 10
85.981949
 20
694.450426
 30
0.0
 10
85.984693
 20
694.447620
 30
0.0
 10
55.515577
 20
724.751181
 30
0.0
  0
LWPOLYLINE
  5
106
100
AcDbEntity
  8
Layer_1
 62
7
100
AcDbPolyline
 90
3
 70
0
 10
61.279739
 20
785.171591
 30
0.0
 10
59.127883
 20
783.428428
 30
0.0
 10
86.596634
 20
755.820516
 30
0.0
  0
SPLINE
  5
107
100
AcDbEntity
  8
Layer_1
 62
7
100
AcDbSpline
 70
8
 71
3
 72
8
 73
4
 74
0
 40
0
 40
0
 40
0
 40
0
 40
1
 40
1
 40
1
 40
1
 10
26.165968
 20
750.060751
 30
0.0
 10
25.210040
 20
748.876776
 30
0.0
 10
23.735599
 20
746.675768
 30
0.0
 10
22.889112
 20
745.169638
 30
0.0
  0
LWPOLYLINE
  5
108
100
AcDbEntity
  8
Layer_1
 62
7
100
AcDbPolyline
 90
3
 70
0
 10
55.515577
 20
724.751181
 30
0.0
 10
27.903271
 20
752.212607
 30
0.0
 10
26.165968
 20
750.060751
 30
0.0
  0
SPLINE
  5
109
100
AcDbEntity
  8
Layer_1
 62
7
100
AcDbSpline
 70
8
 71
3
 72
8
 73
4
 74
0
 40
0
 40
0
 40
0
 40
0
 40
1
 40
1
 40
1
 40
1
 10
25.670849
 20
735.960166
 30
0.0
 10
39.398080
 20
715.406652
 30
0.0
 10
45.918544
 20
690.635191
 30
0.0
 10
43.764599
 20
667.222364
 30
0.0
  0
SPLINE
  5
10a
100
AcDbEntity
  8
Layer_1
 62
7
100
AcDbSpline
 70
8
 71
3
 72
8
 73
4
 74
0
 40
0
 40
0
 40
0
 40
0
 40
1
 40
1
 40
1
 40
1
 10
43.764599
 20
667.222364
 30
0.0
 10
42.867901
 20
657.475407
 30
0.0
 10
39.964527
 20
644.120980
 30
0.0
 10
38.133740
 20
641.326842
 30
0.0
  0
SPLINE
  5
10b
100
AcDbEntity
  8
Layer_1
 62
7
100
AcDbSpline
 70
8
 71
3
 72
8
 73
4
 74
0
 40
0
 40
0
 40
0
 40
0
 40
1
 40
1
 40
1
 40
1
 10
38.133740
 20
641.326842
 30
0.0
 10
37.509018
 20
640.373409
 30
0.0
 10
37.206573
 20
639.384429
 30
0.0
 10
37.461376
 20
639.129594
 30
0.0
  0
SPLINE
  5
10c
100
AcDbEntity
  8
Layer_1
 62
7
100
AcDbSpline
 70
8
 71
3
 72
8
 73
4
 74
0
 40
0
 40
0
 40
0
 40
0
 40
1
 40
1
 40
1
 40
1
 10
37.461376
 20
639.129594
 30
0.0
 10
38.207395
 20
638.383572
 30
0.0
 10
30.052882
 20
622.086627
 30
0.0
 10
25.725050
 20
615.673043
 30
0.0
  0
SPLINE
  5
10d
100
AcDbEntity
  8
Layer_1
 62
7
100
AcDbSpline
 70
8
 71
3
 72
8
 73
4
 74
0
 40
0
 40
0
 40
0
 40
0
 40
1
 40
1
 40
1
 40
1
 10
25.725050
 20
615.673043
 30
0.0
 10
23.540114
 20
612.435112
 30
0.0
 10
21.756033
 20
609.431579
 30
0.0
 10
21.759718
 20
608.999210
 30
0.0
  0
SPLINE
  5
10e
100
AcDbEntity
  8
Layer_1
 62
7
100
AcDbSpline
 70
8
 71
3
 72
8
 73
4
 74
0
 40
0
 40
0
 40
0
 40
0
 40
1
 40
1
 40
1
 40
1
 10
21.759718
 20
608.999210
 30
0.0
 10
21.763686
 20
608.566842
 30
0.0
 10
22.872093
 20
606.423424
 30
0.0
 10
24.223584
 20
604.235531
 30
0.0
  0
SPLINE
  5
10f
100
AcDbEntity
  8
Layer_1
 62
7
100
AcDbSpline
 70
8
 71
3
 72
8
 73
4
 74
0
 40
0
 40
0
 40
0
 40
0
 40
1
 40
1
 40
1
 40
1
 10
24.223584
 20
604.235531
 30
0.0
 10
25.984006
 20
601.385692
 30
0.0
 10
27.081074
 20
600.322275
 30
0.0
 10
28.092237
 20
600.485550
 30
0.0
  0
SPLINE
  5
110
100
AcDbEntity
  8
Layer_1
 62
7
100
AcDbSpline
 70
8
 71
3
 72
8
 73
4
 74
0
 40
0
 40
0
 40
0
 40
0
 40
1
 40
1
 40
1
 40
1
 10
28.092237
 20
600.485550
 30
0.0
 10
28.868525
 20
600.610842
 30
0.0
 10
41.400130
 20
612.567207
 30
0.0
 10
55.940380
 20
627.054883
 30
0.0
  0
SPLINE
  5
111
100
AcDbEntity
  8
Layer_1
 62
7
100
AcDbSpline
 70
8
 71
3
 72
8
 73
4
 74
0
 40
0
 40
0
 40
0
 40
0
 40
1
 40
1
 40
1
 40
1
 10
55.940380
 20
627.054883
 30
0.0
 10
73.274630
 20
644.326435
 30
0.0
 10
83.507851
 20
653.966739
 30
0.0
 10
85.660597
 20
655.055385
 30
0.0
  0
SPLINE
  5
112
100
AcDbEntity
  8
Layer_1
 62
7
100
AcDbSpline
 70
8
 71
3
 72
8
 73
4
 74
0
 40
0
 40
0
 40
0
 40
0
 40
1
 40
1
 40
1
 40
1
 10
85.660597
 20
655.055385
 30
0.0
 10
97.128459
 20
660.854758
 30
0.0
 10
112.446167
 20
654.164257
 30
0.0
 10
115.952100
 20
641.823443
 30
0.0
  0
SPLINE
  5
113
100
AcDbEntity
  8
Layer_1
 62
7
100
AcDbSpline
 70
8
 71
3
 72
8
 73
4
 74
0
 40
0
 40
0
 40
0
 40
0
 40
1
 40
1
 40
1
 40
1
 10
115.952100
 20
641.823443
 30
0.0
 10
117.226729
 20
637.336794
 30
0.0
 10
117.021555
 20
631.094791
 30
0.0
 10
115.464305
 20
626.962586
 30
0.0
  0
SPLINE
  5
114
100
AcDbEntity
  8
Layer_1
 62
7
100
AcDbSpline
 70
8
 71
3
 72
8
 73
4
 74
0
 40
0
 40
0
 40
0
 40
0
 40
1
 40
1
 40
1
 40
1
 10
115.464305
 20
626.962586
 30
0.0
 10
114.246068
 20
623.729957
 30
0.0
 10
110.339807
 20
619.485188
 30
0.0
 10
87.151808
 20
596.190609
 30
0.0
  0
SPLINE
  5
115
100
AcDbEntity
  8
Layer_1
 62
7
100
AcDbSpline
 70
8
 71
3
 72
8
 73
4
 74
0
 40
0
 40
0
 40
0
 40
0
 40
1
 40
1
 40
1
 40
1
 10
87.151808
 20
596.190609
 30
0.0
 10
72.357211
 20
581.328023
 30
0.0
 10
60.252883
 20
568.637084
 30
0.0
 10
60.252883
 20
567.989453
 30
0.0
  0
SPLINE
  5
116
100
AcDbEntity
  8
Layer_1
 62
7
100
AcDbSpline
 70
8
 71
3
 72
8
 73
4
 74
0
 40
0
 40
0
 40
0
 40
0
 40
1
 40
1
 40
1
 40
1
 10
60.252883
 20
567.989453
 30
0.0
 10
60.252883
 20
566.762873
 30
0.0
 10
67.086386
 20
562.087579
 30
0.0
 10
68.879347
 20
562.087579
 30
0.0
  0
SPLINE
  5
117
100
AcDbEntity
  8
Layer_1
 62
7
100
AcDbSpline
 70
8
 71
3
 72
8
 73
4
 74
0
 40
0
 40
0
 40
0
 40
0
 40
1
 40
1
 40
1
 40
1
 10
68.879347
 20
562.087579
 30
0.0
 10
69.444286
 20
562.087579
 30
0.0
 10
72.712522
 20
563.973015
 30
0.0
 10
76.142044
 20
566.277043
 30
0.0
  0
SPLINE
  5
118
100
AcDbEntity
  8
Layer_1
 62
7
100
AcDbSpline
 70
8
 71
3
 72
8
 73
4
 74
0
 40
0
 40
0
 40
0
 40
0
 40
1
 40
1
 40
1
 40
1
 10
76.142044
 20
566.277043
 30
0.0
 10
87.958451
 20
574.215500
 30
0.0
 10
102.863543
 20
580.195610
 30
0.0
 10
117.459422
 20
582.854678
 30
0.0
  0
SPLINE
  5
119
100
AcDbEntity
  8
Layer_1
 62
7
100
AcDbSpline
 70
8
 71
3
 72
8
 73
4
 74
0
 40
0
 40
0
 40
0
 40
0
 40
1
 40
1
 40
1
 40
1
 10
117.459422
 20
582.854678
 30
0.0
 10
126.637492
 20
584.525758
 30
0.0
 10
144.453098
 20
584.518813
 30
0.0
 10
153.794871
 20
582.837670
 30
0.0
  0
SPLINE
  5
11a
100
AcDbEntity
  8
Layer_1
 62
7
100
AcDbSpline
 70
8
 71
3
 72
8
 73
4
 74
0
 40
0
 40
0
 40
0
 40
0
 40
1
 40
1
 40
1
 40
1
 10
153.794871
 20
582.837670
 30
0.0
 10
168.517789
 20
580.189601
 30
0.0
 10
183.110006
 20
574.280215
 30
0.0
 10
195.717237
 20
565.860124
 30
0.0
  0
LWPOLYLINE
  5
11b
100
AcDbEntity
  8
Layer_1
 62
7
100
AcDbPolyline
 90
3
 70
0
 10
22.889112
 20
745.169638
 30
0.0
 10
21.349561
 20
742.430381
 30
0.0
 10
25.670849
 20
735.960166
 30
0.0
  0
SPLINE
  5
11c
100
AcDbEntity
  8
Layer_1
 62
7
100
AcDbSpline
 70
8
 71
3
 72
8
 73
4
 74
0
 40
0
 40
0
 40
0
 40
0
 40
1
 40
1
 40
1
 40
1
 10
195.717237
 20
565.861598
 30
0.0
 10
199.351525
 20
563.434319
 30
0.0
 10
202.674464
 20
561.656968
 30
0.0
 10
203.101515
 20
561.912369
 30
0.0
  0
SPLINE
  5
11d
100
AcDbEntity
  8
Layer_1
 62
7
100
AcDbSpline
 70
8
 71
3
 72
8
 73
4
 74
0
 40
0
 40
0
 40
0
 40
0
 40
1
 40
1
 40
1
 40
1
 10
203.101515
 20
561.912369
 30
0.0
 10
207.768260
 20
564.704666
 30
0.0
 10
211.752882
 20
567.496225
 30
0.0
 10
211.752882
 20
567.973891
 30
0.0
  0
SPLINE
  5
11e
100
AcDbEntity
  8
Layer_1
 62
7
100
AcDbSpline
 70
8
 71
3
 72
8
 73
4
 74
0
 40
0
 40
0
 40
0
 40
0
 40
1
 40
1
 40
1
 40
1
 10
211.752882
 20
567.973891
 30
0.0
 10
211.752882
 20
568.298940
 30
0.0
 10
199.757477
 20
580.524032
 30
0.0
 10
185.097121
 20
595.139409
 30
0.0
  0
SPLINE
  5
11f
100
AcDbEntity
  8
Layer_1
 62
7
100
AcDbSpline
 70
8
 71
3
 72
8
 73
4
 74
0
 40
0
 40
0
 40
0
 40
0
 40
1
 40
1
 40
1
 40
1
 10
185.097121
 20
595.139409
 30
0.0
 10
156.916043
 20
623.234035
 30
0.0
 10
155.315925
 20
625.190054
 30
0.0
 10
154.278269
 20
632.813749
 30
0.0
  0
SPLINE
  5
120
100
AcDbEntity
  8
Layer_1
 62
7
100
AcDbSpline
 70
8
 71
3
 72
8
 73
4
 74
0
 40
0
 40
0
 40
0
 40
0
 40
1
 40
1
 40
1
 40
1
 10
154.278269
 20
632.813749
 30
0.0
 10
153.817123
 20
636.201774
 30
0.0
 10
154.336720
 20
639.063094
 30
0.0
 10
156.462355
 20
644.850363
 30
0.0
  0
SPLINE
  5
121
100
AcDbEntity
  8
Layer_1
 62
7
100
AcDbSpline
 70
8
 71
3
 72
8
 73
4
 74
0
 40
0
 40
0
 40
0
 40
0
 40
1
 40
1
 40
1
 40
1
 10
156.462355
 20
644.850363
 30
0.0
 10
157.504683
 20
647.688155
 30
0.0
 10
164.040463
 20
654.336689
 30
0.0
 10
165.787551
 20
654.336689
 30
0.0
  0
SPLINE
  5
122
100
AcDbEntity
  8
Layer_1
 62
7
100
AcDbSpline
 70
8
 71
3
 72
8
 73
4
 74
0
 40
0
 40
0
 40
0
 40
0
 40
1
 40
1
 40
1
 40
1
 10
165.787551
 20
654.336689
 30
0.0
 10
166.547546
 20
654.336689
 30
0.0
 10
168.003488
 20
654.927344
 30
0.0
 10
169.023390
 20
655.649215
 30
0.0
  0
SPLINE
  5
123
100
AcDbEntity
  8
Layer_1
 62
7
100
AcDbSpline
 70
8
 71
3
 72
8
 73
4
 74
0
 40
0
 40
0
 40
0
 40
0
 40
1
 40
1
 40
1
 40
1
 10
169.023390
 20
655.649215
 30
0.0
 10
170.409983
 20
656.630597
 30
0.0
 10
172.296862
 20
656.950601
 30
0.0
 10
176.502883
 20
656.916301
 30
0.0
  0
SPLINE
  5
124
100
AcDbEntity
  8
Layer_1
 62
7
100
AcDbSpline
 70
8
 71
3
 72
8
 73
4
 74
0
 40
0
 40
0
 40
0
 40
0
 40
1
 40
1
 40
1
 40
1
 10
176.502883
 20
656.916301
 30
0.0
 10
185.589232
 20
656.842317
 30
0.0
 10
186.216412
 20
656.359974
 30
0.0
 10
215.873487
 20
626.639409
 30
0.0
  0
SPLINE
  5
125
100
AcDbEntity
  8
Layer_1
 62
7
100
AcDbSpline
 70
8
 71
3
 72
8
 73
4
 74
0
 40
0
 40
0
 40
0
 40
0
 40
1
 40
1
 40
1
 40
1
 10
215.873487
 20
626.639409
 30
0.0
 10
230.308767
 20
612.173276
 30
0.0
 10
242.687982
 20
600.336675
 30
0.0
 10
243.381790
 20
600.336675
 30
0.0
  0
SPLINE
  5
126
100
AcDbEntity
  8
Layer_1
 62
7
100
AcDbSpline
 70
8
 71
3
 72
8
 73
4
 74
0
 40
0
 40
0
 40
0
 40
0
 40
1
 40
1
 40
1
 40
1
 10
243.381790
 20
600.336675
 30
0.0
 10
245.059699
 20
600.336675
 30
0.0
 10
249.741539
 20
608.447645
 30
0.0
 10
248.806106
 20
609.733667
 30
0.0
  0
SPLINE
  5
127
100
AcDbEntity
  8
Layer_1
 62
7
100
AcDbSpline
 70
8
 71
3
 72
8
 73
4
 74
0
 40
0
 40
0
 40
0
 40
0
 40
1
 40
1
 40
1
 40
1
 10
248.806106
 20
609.733667
 30
0.0
 10
233.310189
 20
631.037333
 30
0.0
 10
226.002883
 20
652.170268
 30
0.0
 10
226.002883
 20
675.677999
 30
0.0
  0
SPLINE
  5
128
100
AcDbEntity
  8
Layer_1
 62
7
100
AcDbSpline
 70
8
 71
3
 72
8
 73
4
 74
0
 40
0
 40
0
 40
0
 40
0
 40
1
 40
1
 40
1
 40
1
 10
226.002883
 20
675.677999
 30
0.0
 10
226.002883
 20
691.766535
 30
0.0
 10
229.173454
 20
705.905558
 30
0.0
 10
236.126418
 20
720.817169
 30
0.0
  0
SPLINE
  5
129
100
AcDbEntity
  8
Layer_1
 62
7
100
AcDbSpline
 70
8
 71
3
 72
8
 73
4
 74
0
 40
0
 40
0
 40
0
 40
0
 40
1
 40
1
 40
1
 40
1
 10
236.126418
 20
720.817169
 30
0.0
 10
239.369647
 20
727.772757
 30
0.0
 10
245.149007
 20
737.336554
 30
0.0
 10
247.952100
 20
740.387480
 30
0.0
  0
SPLINE
  5
12a
100
AcDbEntity
  8
Layer_1
 62
7
100
AcDbSpline
 70
8
 71
3
 72
8
 73
4
 74
0
 40
0
 40
0
 40
0
 40
0
 40
1
 40
1
 40
1
 40
1
 10
247.952100
 20
740.387480
 30
0.0
 10
249.446044
 20
742.013575
 30
0.0
 10
249.453241
 20
742.148376
 30
0.0
 10
248.192337
 20
744.944610
 30
0.0
  0
SPLINE
  5
12b
100
AcDbEntity
  8
Layer_1
 62
7
100
AcDbSpline
 70
8
 71
3
 72
8
 73
4
 74
0
 40
0
 40
0
 40
0
 40
0
 40
1
 40
1
 40
1
 40
1
 10
248.192337
 20
744.944610
 30
0.0
 10
247.477779
 20
746.529146
 30
0.0
 10
246.093795
 20
748.812348
 30
0.0
 10
245.117628
 20
750.018830
 30
0.0
  0
LWPOLYLINE
  5
12c
100
AcDbEntity
  8
Layer_1
 62
7
100
AcDbPolyline
 90
2
 70
0
 10
195.717237
 20
565.860124
 30
0.0
 10
195.717237
 20
565.861598
 30
0.0
  0
SPLINE
  5
12d
100
AcDbEntity
  8
Layer_1
 62
7
100
AcDbSpline
 70
8
 71
3
 72
8
 73
4
 74
0
 40
0
 40
0
 40
0
 40
0
 40
1
 40
1
 40
1
 40
1
 10
216.110792
 20
725.060262
 30
0.0
 10
185.657406
 20
694.696136
 30
0.0
 10
185.488004
 20
694.566462
 30
0.0
 10
176.101515
 20
694.527060
 30
0.0
  0
SPLINE
  5
12e
100
AcDbEntity
  8
Layer_1
 62
7
100
AcDbSpline
 70
8
 71
3
 72
8
 73
4
 74
0
 40
0
 40
0
 40
0
 40
0
 40
1
 40
1
 40
1
 40
1
 10
176.101515
 20
694.527060
 30
0.0
 10
163.642306
 20
694.474761
 30
0.0
 10
154.407796
 20
703.713135
 30
0.0
 10
154.426221
 20
716.212607
 30
0.0
  0
SPLINE
  5
12f
100
AcDbEntity
  8
Layer_1
 62
7
100
AcDbSpline
 70
8
 71
3
 72
8
 73
4
 74
0
 40
0
 40
0
 40
0
 40
0
 40
1
 40
1
 40
1
 40
1
 10
154.426221
 20
716.212607
 30
0.0
 10
154.440111
 20
725.651201
 30
0.0
 10
154.581077
 20
725.837893
 30
0.0
 10
184.786574
 20
755.967002
 30
0.0
  0
SPLINE
  5
130
100
AcDbEntity
  8
Layer_1
 62
7
100
AcDbSpline
 70
8
 71
3
 72
8
 73
4
 74
0
 40
0
 40
0
 40
0
 40
0
 40
1
 40
1
 40
1
 40
1
 10
184.786574
 20
755.967002
 30
0.0
 10
199.617605
 20
770.760522
 30
0.0
 10
211.752882
 20
783.123233
 30
0.0
 10
211.752882
 20
783.440147
 30
0.0
  0
SPLINE
  5
131
100
AcDbEntity
  8
Layer_1
 62
7
100
AcDbSpline
 70
8
 71
3
 72
8
 73
4
 74
0
 40
0
 40
0
 40
0
 40
0
 40
1
 40
1
 40
1
 40
1
 10
211.752882
 20
783.440147
 30
0.0
 10
211.752882
 20
783.757060
 30
0.0
 10
210.318506
 20
784.994845
 30
0.0
 10
208.565382
 20
786.191122
 30
0.0
  0
SPLINE
  5
132
100
AcDbEntity
  8
Layer_1
 62
7
100
AcDbSpline
 70
8
 71
3
 72
8
 73
4
 74
0
 40
0
 40
0
 40
0
 40
0
 40
1
 40
1
 40
1
 40
1
 10
208.565382
 20
786.191122
 30
0.0
 10
202.257400
 20
790.495444
 30
0.0
 10
202.812029
 20
790.510102
 30
0.0
 10
195.983838
 20
785.860067
 30
0.0
  0
SPLINE
  5
133
100
AcDbEntity
  8
Layer_1
 62
7
100
AcDbSpline
 70
8
 71
3
 72
8
 73
4
 74
0
 40
0
 40
0
 40
0
 40
0
 40
1
 40
1
 40
1
 40
1
 10
195.983838
 20
785.860067
 30
0.0
 10
188.014431
 20
780.432860
 30
0.0
 10
174.929224
 20
774.183206
 30
0.0
 10
166.377883
 20
771.719930
 30
0.0
  0
SPLINE
  5
134
100
AcDbEntity
  8
Layer_1
 62
7
100
AcDbSpline
 70
8
 71
3
 72
8
 73
4
 74
0
 40
0
 40
0
 40
0
 40
0
 40
1
 40
1
 40
1
 40
1
 10
166.377883
 20
771.719930
 30
0.0
 10
134.871094
 20
762.644254
 30
0.0
 10
102.374592
 20
767.670761
 30
0.0
 10
75.280714
 20
785.810262
 30
0.0
  0
LWPOLYLINE
  5
135
100
AcDbEntity
  8
Layer_1
 62
7
100
AcDbPolyline
 90
3
 70
0
 10
245.117628
 20
750.018830
 30
0.0
 10
243.343704
 20
752.212607
 30
0.0
 10
216.110792
 20
725.060262
 30
0.0
  0
SPLINE
  5
136
100
AcDbEntity
  8
Layer_1
 62
7
100
AcDbSpline
 70
8
 71
3
 72
8
 73
4
 74
0
 40
0
 40
0
 40
0
 40
0
 40
1
 40
1
 40
1
 40
1
 10
135.197215
 20
696.859092
 30
0.0
 10
140.162057
 20
696.914396
 30
0.0
 10
145.207318
 20
695.181110
 30
0.0
 10
149.357860
 20
691.449423
 30
0.0
  0
SPLINE
  5
137
100
AcDbEntity
  8
Layer_1
 62
7
100
AcDbSpline
 70
8
 71
3
 72
8
 73
4
 74
0
 40
0
 40
0
 40
0
 40
0
 40
1
 40
1
 40
1
 40
1
 10
149.357860
 20
691.449423
 30
0.0
 10
153.199604
 20
687.995357
 30
0.0
 10
156.771300
 20
682.031886
 30
0.0
 10
155.870558
 20
680.574424
 30
0.0
  0
SPLINE
  5
138
100
AcDbEntity
  8
Layer_1
 62
7
100
AcDbSpline
 70
8
 71
3
 72
8
 73
4
 74
0
 40
0
 40
0
 40
0
 40
0
 40
1
 40
1
 40
1
 40
1
 10
155.870558
 20
680.574424
 30
0.0
 10
155.597468
 20
680.132560
 30
0.0
 10
155.778914
 20
679.282347
 30
0.0
 10
156.274855
 20
678.684776
 30
0.0
  0
SPLINE
  5
139
100
AcDbEntity
  8
Layer_1
 62
7
100
AcDbSpline
 70
8
 71
3
 72
8
 73
4
 74
0
 40
0
 40
0
 40
0
 40
0
 40
1
 40
1
 40
1
 40
1
 10
156.274855
 20
678.684776
 30
0.0
 10
157.448752
 20
677.270305
 30
0.0
 10
156.567019
 20
669.781341
 30
0.0
 10
155.081007
 20
668.548043
 30
0.0
  0
SPLINE
  5
13a
100
AcDbEntity
  8
Layer_1
 62
7
100
AcDbSpline
 70
8
 71
3
 72
8
 73
4
 74
0
 40
0
 40
0
 40
0
 40
0
 40
1
 40
1
 40
1
 40
1
 10
155.081007
 20
668.548043
 30
0.0
 10
154.488322
 20
668.056204
 30
0.0
 10
154.002881
 20
667.012941
 30
0.0
 10
154.002881
 20
666.229218
 30
0.0
  0
SPLINE
  5
13b
100
AcDbEntity
  8
Layer_1
 62
7
100
AcDbSpline
 70
8
 71
3
 72
8
 73
4
 74
0
 40
0
 40
0
 40
0
 40
0
 40
1
 40
1
 40
1
 40
1
 10
154.002881
 20
666.229218
 30
0.0
 10
154.002881
 20
664.379498
 30
0.0
 10
148.203329
 20
658.087605
 30
0.0
 10
146.498485
 20
658.087605
 30
0.0
  0
SPLINE
  5
13c
100
AcDbEntity
  8
Layer_1
 62
7
100
AcDbSpline
 70
8
 71
3
 72
8
 73
4
 74
0
 40
0
 40
0
 40
0
 40
0
 40
1
 40
1
 40
1
 40
1
 10
146.498485
 20
658.087605
 30
0.0
 10
145.776535
 20
658.087605
 30
0.0
 10
144.785302
 20
657.604213
 30
0.0
 10
144.295359
 20
657.013870
 30
0.0
  0
SPLINE
  5
13d
100
AcDbEntity
  8
Layer_1
 62
7
100
AcDbSpline
 70
8
 71
3
 72
8
 73
4
 74
0
 40
0
 40
0
 40
0
 40
0
 40
1
 40
1
 40
1
 40
1
 10
144.295359
 20
657.013870
 30
0.0
 10
143.805416
 20
656.423527
 30
0.0
 10
141.722320
 20
655.579766
 30
0.0
 10
139.666453
 20
655.138865
 30
0.0
  0
SPLINE
  5
13e
100
AcDbEntity
  8
Layer_1
 62
7
100
AcDbSpline
 70
8
 71
3
 72
8
 73
4
 74
0
 40
0
 40
0
 40
0
 40
0
 40
1
 40
1
 40
1
 40
1
 10
139.666453
 20
655.138865
 30
0.0
 10
135.588183
 20
654.264320
 30
0.0
 10
135.352752
 20
654.261797
 30
0.0
 10
131.502881
 20
655.042204
 30
0.0
  0
SPLINE
  5
13f
100
AcDbEntity
  8
Layer_1
 62
7
100
AcDbSpline
 70
8
 71
3
 72
8
 73
4
 74
0
 40
0
 40
0
 40
0
 40
0
 40
1
 40
1
 40
1
 40
1
 10
131.502881
 20
655.042204
 30
0.0
 10
125.252311
 20
656.309234
 30
0.0
 10
118.485819
 20
661.820579
 30
0.0
 10
115.924266
 20
667.732147
 30
0.0
  0
SPLINE
  5
140
100
AcDbEntity
  8
Layer_1
 62
7
100
AcDbSpline
 70
8
 71
3
 72
8
 73
4
 74
0
 40
0
 40
0
 40
0
 40
0
 40
1
 40
1
 40
1
 40
1
 10
115.924266
 20
667.732147
 30
0.0
 10
114.176027
 20
671.766755
 30
0.0
 10
114.342296
 20
680.149026
 30
0.0
 10
116.253856
 20
684.337609
 30
0.0
  0
SPLINE
  5
141
100
AcDbEntity
  8
Layer_1
 62
7
100
AcDbSpline
 70
8
 71
3
 72
8
 73
4
 74
0
 40
0
 40
0
 40
0
 40
0
 40
1
 40
1
 40
1
 40
1
 10
116.253856
 20
684.337609
 30
0.0
 10
119.903292
 20
692.334215
 30
0.0
 10
127.452064
 20
696.772826
 30
0.0
 10
135.197215
 20
696.859092
 30
0.0
  0
LWPOLYLINE
  5
142
100
AcDbEntity
  8
Layer_1
 62
7
100
AcDbPolyline
 90
2
 70
0
 10
75.280714
 20
785.810262
 30
0.0
 10
68.977491
 20
790.030477
 30
0.0
  0
SPLINE
  5
143
100
AcDbEntity
  8
Layer_1
 62
7
100
AcDbSpline
 70
8
 71
3
 72
8
 73
4
 74
0
 40
0
 40
0
 40
0
 40
0
 40
1
 40
1
 40
1
 40
1
 10
410.585839
 20
648.727846
 30
0.0
 10
404.930750
 20
650.250334
 30
0.0
 10
402.735430
 20
651.559799
 30
0.0
 10
399.305424
 20
655.456499
 30
0.0
  0
SPLINE
  5
144
100
AcDbEntity
  8
Layer_1
 62
7
100
AcDbSpline
 70
8
 71
3
 72
8
 73
4
 74
0
 40
0
 40
0
 40
0
 40
0
 40
1
 40
1
 40
1
 40
1
 10
399.305424
 20
655.456499
 30
0.0
 10
387.798973
 20
668.528504
 30
0.0
 10
395.570835
 20
688.673934
 30
0.0
 10
413.208425
 20
691.494293
 30
0.0
  0
SPLINE
  5
145
100
AcDbEntity
  8
Layer_1
 62
7
100
AcDbSpline
 70
8
 71
3
 72
8
 73
4
 74
0
 40
0
 40
0
 40
0
 40
0
 40
1
 40
1
 40
1
 40
1
 10
413.208425
 20
691.494293
 30
0.0
 10
417.649918
 20
692.204513
 30
0.0
 10
425.704167
 20
689.618863
 30
0.0
 10
429.697361
 20
686.200819
 30
0.0
  0
SPLINE
  5
146
100
AcDbEntity
  8
Layer_1
 62
7
100
AcDbSpline
 70
8
 71
3
 72
8
 73
4
 74
0
 40
0
 40
0
 40
0
 40
0
 40
1
 40
1
 40
1
 40
1
 10
429.697361
 20
686.200819
 30
0.0
 10
433.090346
 20
683.296554
 30
0.0
 10
436.988636
 20
676.285739
 30
0.0
 10
436.262598
 20
674.393698
 30
0.0
  0
SPLINE
  5
147
100
AcDbEntity
  8
Layer_1
 62
7
100
AcDbSpline
 70
8
 71
3
 72
8
 73
4
 74
0
 40
0
 40
0
 40
0
 40
0
 40
1
 40
1
 40
1
 40
1
 10
436.262598
 20
674.393698
 30
0.0
 10
436.014283
 20
673.746378
 30
0.0
 10
436.171606
 20
672.993950
 30
0.0
 10
436.612110
 20
672.721625
 30
0.0
  0
SPLINE
  5
148
100
AcDbEntity
  8
Layer_1
 62
7
100
AcDbSpline
 70
8
 71
3
 72
8
 73
4
 74
0
 40
0
 40
0
 40
0
 40
0
 40
1
 40
1
 40
1
 40
1
 10
436.612110
 20
672.721625
 30
0.0
 10
437.846683
 20
671.958624
 30
0.0
 10
437.564750
 20
667.740246
 30
0.0
 10
435.969241
 20
663.102842
 30
0.0
  0
SPLINE
  5
149
100
AcDbEntity
  8
Layer_1
 62
7
100
AcDbSpline
 70
8
 71
3
 72
8
 73
4
 74
0
 40
0
 40
0
 40
0
 40
0
 40
1
 40
1
 40
1
 40
1
 10
435.969241
 20
663.102842
 30
0.0
 10
434.499335
 20
658.830492
 30
0.0
 10
431.670841
 20
654.315043
 30
0.0
 10
430.464501
 20
654.315043
 30
0.0
  0
SPLINE
  5
14a
100
AcDbEntity
  8
Layer_1
 62
7
100
AcDbSpline
 70
8
 71
3
 72
8
 73
4
 74
0
 40
0
 40
0
 40
0
 40
0
 40
1
 40
1
 40
1
 40
1
 10
430.464501
 20
654.315043
 30
0.0
 10
430.097839
 20
654.315043
 30
0.0
 10
428.837301
 20
653.354470
 30
0.0
 10
427.663276
 20
652.180473
 30
0.0
  0
SPLINE
  5
14b
100
AcDbEntity
  8
Layer_1
 62
7
100
AcDbSpline
 70
8
 71
3
 72
8
 73
4
 74
0
 40
0
 40
0
 40
0
 40
0
 40
1
 40
1
 40
1
 40
1
 10
427.663276
 20
652.180473
 30
0.0
 10
426.188041
 20
650.705210
 30
0.0
 10
423.947225
 20
649.662174
 30
0.0
 10
420.408482
 20
648.803503
 30
0.0
  0
SPLINE
  5
14c
100
AcDbEntity
  8
Layer_1
 62
7
100
AcDbSpline
 70
8
 71
3
 72
8
 73
4
 74
0
 40
0
 40
0
 40
0
 40
0
 40
1
 40
1
 40
1
 40
1
 10
420.408482
 20
648.803503
 30
0.0
 10
417.592346
 20
648.120183
 30
0.0
 10
415.119487
 20
647.584209
 30
0.0
 10
414.913238
 20
647.612442
 30
0.0
  0
SPLINE
  5
14d
100
AcDbEntity
  8
Layer_1
 62
7
100
AcDbSpline
 70
8
 71
3
 72
8
 73
4
 74
0
 40
0
 40
0
 40
0
 40
0
 40
1
 40
1
 40
1
 40
1
 10
414.913238
 20
647.612442
 30
0.0
 10
414.706876
 20
647.640788
 30
0.0
 10
412.759672
 20
648.142577
 30
0.0
 10
410.585839
 20
648.727846
 30
0.0
  0
LWPOLYLINE
  5
14e
100
AcDbEntity
  8
Layer_1
 62
7
100
AcDbPolyline
 90
1
 70
1
 10
135.197215
 20
696.859092
 30
0.0
  0
SPLINE
  5
14f
100
AcDbEntity
  8
Layer_1
 62
7
100
AcDbSpline
 70
8
 71
3
 72
8
 73
4
 74
0
 40
0
 40
0
 40
0
 40
0
 40
1
 40
1
 40
1
 40
1
 10
488.059682
 20
610.252520
 30
0.0
 10
473.413890
 20
640.876161
 30
0.0
 10
470.359616
 20
673.372772
 30
0.0
 10
479.078079
 20
705.813534
 30
0.0
  0
SPLINE
  5
150
100
AcDbEntity
  8
Layer_1
 62
7
100
AcDbSpline
 70
8
 71
3
 72
8
 73
4
 74
0
 40
0
 40
0
 40
0
 40
0
 40
1
 40
1
 40
1
 40
1
 10
479.078079
 20
705.813534
 30
0.0
 10
482.502302
 20
718.554756
 30
0.0
 10
491.733383
 20
739.065033
 30
0.0
 10
494.043647
 20
739.065033
 30
0.0
  0
SPLINE
  5
151
100
AcDbEntity
  8
Layer_1
 62
7
100
AcDbSpline
 70
8
 71
3
 72
8
 73
4
 74
0
 40
0
 40
0
 40
0
 40
0
 40
1
 40
1
 40
1
 40
1
 10
494.043647
 20
739.065033
 30
0.0
 10
496.586041
 20
739.065033
 30
0.0
 10
507.903307
 20
721.330809
 30
0.0
 10
512.419323
 20
710.270220
 30
0.0
  0
SPLINE
  5
152
100
AcDbEntity
  8
Layer_1
 62
7
100
AcDbSpline
 70
8
 71
3
 72
8
 73
4
 74
0
 40
0
 40
0
 40
0
 40
0
 40
1
 40
1
 40
1
 40
1
 10
512.419323
 20
710.270220
 30
0.0
 10
523.415055
 20
683.339471
 30
0.0
 10
523.264592
 20
654.759062
 30
0.0
 10
511.985906
 20
627.943657
 30
0.0
  0
SPLINE
  5
153
100
AcDbEntity
  8
Layer_1
 62
7
100
AcDbSpline
 70
8
 71
3
 72
8
 73
4
 74
0
 40
0
 40
0
 40
0
 40
0
 40
1
 40
1
 40
1
 40
1
 10
511.985906
 20
627.943657
 30
0.0
 10
507.873402
 20
618.166029
 30
0.0
 10
496.149704
 20
600.315046
 30
0.0
 10
493.840715
 20
600.315046
 30
0.0
  0
SPLINE
  5
154
100
AcDbEntity
  8
Layer_1
 62
7
100
AcDbSpline
 70
8
 71
3
 72
8
 73
4
 74
0
 40
0
 40
0
 40
0
 40
0
 40
1
 40
1
 40
1
 40
1
 10
493.840715
 20
600.315046
 30
0.0
 10
493.260350
 20
600.315046
 30
0.0
 10
490.741739
 20
604.644457
 30
0.0
 10
488.059682
 20
610.252520
 30
0.0
  0
LWPOLYLINE
  5
155
100
AcDbEntity
  8
Layer_1
 62
7
100
AcDbPolyline
 90
1
 70
1
 10
410.585839
 20
648.727846
 30
0.0
  0
SPLINE
  5
156
100
AcDbEntity
  8
Layer_1
 62
7
100
AcDbSpline
 70
8
 71
3
 72
8
 73
4
 74
0
 40
0
 40
0
 40
0
 40
0
 40
1
 40
1
 40
1
 40
1
 10
435.768321
 20
543.909288
 30
0.0
 10
441.370687
 20
546.005424
 30
0.0
 10
446.238935
 20
551.265477
 30
0.0
 10
447.916139
 20
557.034831
 30
0.0
  0
SPLINE
  5
157
100
AcDbEntity
  8
Layer_1
 62
7
100
AcDbSpline
 70
8
 71
3
 72
8
 73
4
 74
0
 40
0
 40
0
 40
0
 40
0
 40
1
 40
1
 40
1
 40
1
 10
447.916139
 20
557.034831
 30
0.0
 10
449.093254
 20
561.083990
 30
0.0
 10
449.089852
 20
561.632664
 30
0.0
 10
447.859162
 20
566.179180
 30
0.0
  0
SPLINE
  5
158
100
AcDbEntity
  8
Layer_1
 62
7
100
AcDbSpline
 70
8
 71
3
 72
8
 73
4
 74
0
 40
0
 40
0
 40
0
 40
0
 40
1
 40
1
 40
1
 40
1
 10
447.859162
 20
566.179180
 30
0.0
 10
446.152876
 20
572.482723
 30
0.0
 10
441.205909
 20
577.747057
 30
0.0
 10
435.356220
 20
579.484242
 30
0.0
  0
SPLINE
  5
159
100
AcDbEntity
  8
Layer_1
 62
7
100
AcDbSpline
 70
8
 71
3
 72
8
 73
4
 74
0
 40
0
 40
0
 40
0
 40
0
 40
1
 40
1
 40
1
 40
1
 10
435.356220
 20
579.484242
 30
0.0
 10
430.232457
 20
581.005823
 30
0.0
 10
428.116309
 20
580.937876
 30
0.0
 10
423.186661
 20
579.093457
 30
0.0
  0
SPLINE
  5
15a
100
AcDbEntity
  8
Layer_1
 62
7
100
AcDbSpline
 70
8
 71
3
 72
8
 73
4
 74
0
 40
0
 40
0
 40
0
 40
0
 40
1
 40
1
 40
1
 40
1
 10
423.186661
 20
579.093457
 30
0.0
 10
418.293071
 20
577.262531
 30
0.0
 10
413.008696
 20
571.869249
 30
0.0
 10
411.643417
 20
567.312330
 30
0.0
  0
SPLINE
  5
15b
100
AcDbEntity
  8
Layer_1
 62
7
100
AcDbSpline
 70
8
 71
3
 72
8
 73
4
 74
0
 40
0
 40
0
 40
0
 40
0
 40
1
 40
1
 40
1
 40
1
 10
411.643417
 20
567.312330
 30
0.0
 10
408.722797
 20
557.564230
 30
0.0
 10
414.552784
 20
546.517361
 30
0.0
 10
424.183663
 20
543.550592
 30
0.0
  0
SPLINE
  5
15c
100
AcDbEntity
  8
Layer_1
 62
7
100
AcDbSpline
 70
8
 71
3
 72
8
 73
4
 74
0
 40
0
 40
0
 40
0
 40
0
 40
1
 40
1
 40
1
 40
1
 10
424.183663
 20
543.550592
 30
0.0
 10
428.949666
 20
542.082444
 30
0.0
 10
431.060287
 20
542.147783
 30
0.0
 10
435.768321
 20
543.909288
 30
0.0
  0
LWPOLYLINE
  5
15d
100
AcDbEntity
  8
Layer_1
 62
7
100
AcDbPolyline
 90
1
 70
1
 10
488.059682
 20
610.252520
 30
0.0
  0
SPLINE
  5
15e
100
AcDbEntity
  8
Layer_1
 62
7
100
AcDbSpline
 70
8
 71
3
 72
8
 73
4
 74
0
 40
0
 40
0
 40
0
 40
0
 40
1
 40
1
 40
1
 40
1
 10
415.710680
 20
829.029158
 30
0.0
 10
408.720756
 20
829.026040
 30
0.0
 10
401.678419
 20
828.772679
 30
0.0
 10
397.070535
 20
828.268903
 30
0.0
  0
SPLINE
  5
15f
100
AcDbEntity
  8
Layer_1
 62
7
100
AcDbSpline
 70
8
 71
3
 72
8
 73
4
 74
0
 40
0
 40
0
 40
0
 40
0
 40
1
 40
1
 40
1
 40
1
 10
397.070535
 20
828.268903
 30
0.0
 10
367.640110
 20
825.051328
 30
0.0
 10
339.688355
 20
813.391206
 30
0.0
 10
314.788796
 20
793.946149
 30
0.0
  0
SPLINE
  5
160
100
AcDbEntity
  8
Layer_1
 62
7
100
AcDbSpline
 70
8
 71
3
 72
8
 73
4
 74
0
 40
0
 40
0
 40
0
 40
0
 40
1
 40
1
 40
1
 40
1
 10
314.788796
 20
793.946149
 30
0.0
 10
308.086886
 20
788.712378
 30
0.0
 10
295.029649
 20
775.419001
 30
0.0
 10
289.542214
 20
768.242537
 30
0.0
  0
SPLINE
  5
161
100
AcDbEntity
  8
Layer_1
 62
7
100
AcDbSpline
 70
8
 71
3
 72
8
 73
4
 74
0
 40
0
 40
0
 40
0
 40
0
 40
1
 40
1
 40
1
 40
1
 10
289.542214
 20
768.242537
 30
0.0
 10
279.302587
 20
754.851175
 30
0.0
 10
268.966845
 20
735.493045
 30
0.0
 10
263.854715
 20
720.131207
 30
0.0
  0
SPLINE
  5
162
100
AcDbEntity
  8
Layer_1
 62
7
100
AcDbSpline
 70
8
 71
3
 72
8
 73
4
 74
0
 40
0
 40
0
 40
0
 40
0
 40
1
 40
1
 40
1
 40
1
 10
263.854715
 20
720.131207
 30
0.0
 10
261.168670
 20
712.059732
 30
0.0
 10
257.413796
 20
695.323536
 30
0.0
 10
257.413796
 20
691.426131
 30
0.0
  0
LWPOLYLINE
  5
163
100
AcDbEntity
  8
Layer_1
 62
7
100
AcDbPolyline
 90
1
 70
1
 10
435.768321
 20
543.909288
 30
0.0
  0
SPLINE
  5
164
100
AcDbEntity
  8
Layer_1
 62
7
100
AcDbSpline
 70
8
 71
3
 72
8
 73
4
 74
0
 40
0
 40
0
 40
0
 40
0
 40
1
 40
1
 40
1
 40
1
 10
261.922584
 20
689.822127
 30
0.0
 10
264.402655
 20
690.081327
 30
0.0
 10
267.862031
 20
691.008457
 30
0.0
 10
269.610086
 20
691.881698
 30
0.0
  0
SPLINE
  5
165
100
AcDbEntity
  8
Layer_1
 62
7
100
AcDbSpline
 70
8
 71
3
 72
8
 73
4
 74
0
 40
0
 40
0
 40
0
 40
0
 40
1
 40
1
 40
1
 40
1
 10
269.610086
 20
691.881698
 30
0.0
 10
271.661933
 20
692.906732
 30
0.0
 10
282.362366
 20
703.010914
 30
0.0
 10
299.801979
 20
720.391952
 30
0.0
  0
SPLINE
  5
166
100
AcDbEntity
  8
Layer_1
 62
7
100
AcDbSpline
 70
8
 71
3
 72
8
 73
4
 74
0
 40
0
 40
0
 40
0
 40
0
 40
1
 40
1
 40
1
 40
1
 10
299.801979
 20
720.391952
 30
0.0
 10
314.659440
 20
735.199444
 30
0.0
 10
327.195213
 20
747.314314
 30
0.0
 10
327.660378
 20
747.314314
 30
0.0
  0
SPLINE
  5
167
100
AcDbEntity
  8
Layer_1
 62
7
100
AcDbSpline
 70
8
 71
3
 72
8
 73
4
 74
0
 40
0
 40
0
 40
0
 40
0
 40
1
 40
1
 40
1
 40
1
 10
327.660378
 20
747.314314
 30
0.0
 10
328.297663
 20
747.314314
 30
0.0
 10
331.492184
 20
742.943551
 30
0.0
 10
333.547586
 20
739.259138
 30
0.0
  0
SPLINE
  5
168
100
AcDbEntity
  8
Layer_1
 62
7
100
AcDbSpline
 70
8
 71
3
 72
8
 73
4
 74
0
 40
0
 40
0
 40
0
 40
0
 40
1
 40
1
 40
1
 40
1
 10
333.547586
 20
739.259138
 30
0.0
 10
333.602889
 20
739.159954
 30
0.0
 10
336.707717
 20
742.068655
 30
0.0
 10
340.445534
 20
745.722028
 30
0.0
  0
SPLINE
  5
169
100
AcDbEntity
  8
Layer_1
 62
7
100
AcDbSpline
 70
8
 71
3
 72
8
 73
4
 74
0
 40
0
 40
0
 40
0
 40
0
 40
1
 40
1
 40
1
 40
1
 10
340.445534
 20
745.722028
 30
0.0
 10
347.238133
 20
752.361188
 30
0.0
 10
359.624863
 20
761.276503
 30
0.0
 10
367.572974
 20
765.246932
 30
0.0
  0
SPLINE
  5
16a
100
AcDbEntity
  8
Layer_1
 62
7
100
AcDbSpline
 70
8
 71
3
 72
8
 73
4
 74
0
 40
0
 40
0
 40
0
 40
0
 40
1
 40
1
 40
1
 40
1
 10
367.572974
 20
765.246932
 30
0.0
 10
396.980212
 20
779.937100
 30
0.0
 10
433.486318
 20
780.074362
 30
0.0
 10
462.436243
 20
765.602889
 30
0.0
  0
SPLINE
  5
16b
100
AcDbEntity
  8
Layer_1
 62
7
100
AcDbSpline
 70
8
 71
3
 72
8
 73
4
 74
0
 40
0
 40
0
 40
0
 40
0
 40
1
 40
1
 40
1
 40
1
 10
462.436243
 20
765.602889
 30
0.0
 10
476.235383
 20
758.704983
 30
0.0
 10
492.427984
 20
745.525556
 30
0.0
 10
500.823950
 20
734.357772
 30
0.0
  0
SPLINE
  5
16c
100
AcDbEntity
  8
Layer_1
 62
7
100
AcDbSpline
 70
8
 71
3
 72
8
 73
4
 74
0
 40
0
 40
0
 40
0
 40
0
 40
1
 40
1
 40
1
 40
1
 10
500.823950
 20
734.357772
 30
0.0
 10
519.661984
 20
709.300576
 30
0.0
 10
527.015055
 20
676.310842
 30
0.0
 10
520.256580
 20
647.168797
 30
0.0
  0
SPLINE
  5
16d
100
AcDbEntity
  8
Layer_1
 62
7
100
AcDbSpline
 70
8
 71
3
 72
8
 73
4
 74
0
 40
0
 40
0
 40
0
 40
0
 40
1
 40
1
 40
1
 40
1
 10
520.256580
 20
647.168797
 30
0.0
 10
515.413814
 20
626.287209
 30
0.0
 10
506.365427
 20
609.907918
 30
0.0
 10
491.460661
 20
595.039408
 30
0.0
  0
SPLINE
  5
16e
100
AcDbEntity
  8
Layer_1
 62
7
100
AcDbSpline
 70
8
 71
3
 72
8
 73
4
 74
0
 40
0
 40
0
 40
0
 40
0
 40
1
 40
1
 40
1
 40
1
 10
491.460661
 20
595.039408
 30
0.0
 10
475.135200
 20
578.753688
 30
0.0
 10
458.270249
 20
569.641918
 30
0.0
 10
435.913795
 20
565.030630
 30
0.0
  0
SPLINE
  5
16f
100
AcDbEntity
  8
Layer_1
 62
7
100
AcDbSpline
 70
8
 71
3
 72
8
 73
4
 74
0
 40
0
 40
0
 40
0
 40
0
 40
1
 40
1
 40
1
 40
1
 10
435.913795
 20
565.030630
 30
0.0
 10
421.391339
 20
562.035175
 30
0.0
 10
400.502869
 20
562.939200
 30
0.0
 10
385.663796
 20
567.205909
 30
0.0
  0
SPLINE
  5
170
100
AcDbEntity
  8
Layer_1
 62
7
100
AcDbSpline
 70
8
 71
3
 72
8
 73
4
 74
0
 40
0
 40
0
 40
0
 40
0
 40
1
 40
1
 40
1
 40
1
 10
385.663796
 20
567.205909
 30
0.0
 10
368.762862
 20
572.065512
 30
0.0
 10
351.581346
 20
582.332825
 30
0.0
 10
339.267798
 20
594.931011
 30
0.0
  0
SPLINE
  5
171
100
AcDbEntity
  8
Layer_1
 62
7
100
AcDbSpline
 70
8
 71
3
 72
8
 73
4
 74
0
 40
0
 40
0
 40
0
 40
0
 40
1
 40
1
 40
1
 40
1
 10
339.267798
 20
594.931011
 30
0.0
 10
335.073067
 20
599.222721
 30
0.0
 10
333.601101
 20
600.323074
 30
0.0
 10
333.140357
 20
599.510126
 30
0.0
  0
SPLINE
  5
172
100
AcDbEntity
  8
Layer_1
 62
7
100
AcDbSpline
 70
8
 71
3
 72
8
 73
4
 74
0
 40
0
 40
0
 40
0
 40
0
 40
1
 40
1
 40
1
 40
1
 10
333.140357
 20
599.510126
 30
0.0
 10
331.071041
 20
595.858904
 30
0.0
 10
328.797757
 20
593.163950
 30
0.0
 10
327.591530
 20
592.931509
 30
0.0
  0
SPLINE
  5
173
100
AcDbEntity
  8
Layer_1
 62
7
100
AcDbSpline
 70
8
 71
3
 72
8
 73
4
 74
0
 40
0
 40
0
 40
0
 40
0
 40
1
 40
1
 40
1
 40
1
 10
327.591530
 20
592.931509
 30
0.0
 10
326.589908
 20
592.738753
 30
0.0
 10
318.681261
 20
600.158636
 30
0.0
 10
299.492898
 20
619.294309
 30
0.0
  0
SPLINE
  5
174
100
AcDbEntity
  8
Layer_1
 62
7
100
AcDbSpline
 70
8
 71
3
 72
8
 73
4
 74
0
 40
0
 40
0
 40
0
 40
0
 40
1
 40
1
 40
1
 40
1
 10
299.492898
 20
619.294309
 30
0.0
 10
281.461745
 20
637.275883
 30
0.0
 10
271.710156
 20
646.463055
 30
0.0
 10
269.467994
 20
647.578970
 30
0.0
  0
SPLINE
  5
175
100
AcDbEntity
  8
Layer_1
 62
7
100
AcDbSpline
 70
8
 71
3
 72
8
 73
4
 74
0
 40
0
 40
0
 40
0
 40
0
 40
1
 40
1
 40
1
 40
1
 10
269.467994
 20
647.578970
 30
0.0
 10
267.641612
 20
648.487984
 30
0.0
 10
264.182230
 20
649.409102
 30
0.0
 10
261.780494
 20
649.626803
 30
0.0
  0
LWPOLYLINE
  5
176
100
AcDbEntity
  8
Layer_1
 62
7
100
AcDbPolyline
 90
3
 70
0
 10
257.413796
 20
691.426131
 30
0.0
 10
257.413796
 20
689.351913
 30
0.0
 10
261.922584
 20
689.822127
 30
0.0
  0
SPLINE
  5
177
100
AcDbEntity
  8
Layer_1
 62
7
100
AcDbSpline
 70
8
 71
3
 72
8
 73
4
 74
0
 40
0
 40
0
 40
0
 40
0
 40
1
 40
1
 40
1
 40
1
 10
257.419749
 20
647.857276
 30
0.0
 10
257.423151
 20
646.665619
 30
0.0
 10
258.263685
 20
641.639310
 30
0.0
 10
259.288889
 20
636.689310
 30
0.0
  0
SPLINE
  5
178
100
AcDbEntity
  8
Layer_1
 62
7
100
AcDbSpline
 70
8
 71
3
 72
8
 73
4
 74
0
 40
0
 40
0
 40
0
 40
0
 40
1
 40
1
 40
1
 40
1
 10
259.288889
 20
636.689310
 30
0.0
 10
265.385962
 20
607.250920
 30
0.0
 10
280.809700
 20
578.565524
 30
0.0
 10
302.038889
 20
557.177584
 30
0.0
  0
SPLINE
  5
179
100
AcDbEntity
  8
Layer_1
 62
7
100
AcDbSpline
 70
8
 71
3
 72
8
 73
4
 74
0
 40
0
 40
0
 40
0
 40
0
 40
1
 40
1
 40
1
 40
1
 10
302.038889
 20
557.177584
 30
0.0
 10
327.924045
 20
531.098844
 30
0.0
 10
364.062155
 20
514.051909
 30
0.0
 10
400.288890
 20
510.832857
 30
0.0
  0
SPLINE
  5
17a
100
AcDbEntity
  8
Layer_1
 62
7
100
AcDbSpline
 70
8
 71
3
 72
8
 73
4
 74
0
 40
0
 40
0
 40
0
 40
0
 40
1
 40
1
 40
1
 40
1
 10
400.288890
 20
510.832857
 30
0.0
 10
407.253260
 20
510.214110
 30
0.0
 10
426.010082
 20
510.373474
 30
0.0
 10
432.755688
 20
511.108384
 30
0.0
  0
SPLINE
  5
17b
100
AcDbEntity
  8
Layer_1
 62
7
100
AcDbSpline
 70
8
 71
3
 72
8
 73
4
 74
0
 40
0
 40
0
 40
0
 40
0
 40
1
 40
1
 40
1
 40
1
 10
432.755688
 20
511.108384
 30
0.0
 10
454.815156
 20
513.511313
 30
0.0
 10
473.732674
 20
519.587858
 30
0.0
 10
493.750318
 20
530.702135
 30
0.0
  0
SPLINE
  5
17c
100
AcDbEntity
  8
Layer_1
 62
7
100
AcDbSpline
 70
8
 71
3
 72
8
 73
4
 74
0
 40
0
 40
0
 40
0
 40
0
 40
1
 40
1
 40
1
 40
1
 10
493.750318
 20
530.702135
 30
0.0
 10
522.104031
 20
546.444794
 30
0.0
 10
543.971792
 20
569.549565
 30
0.0
 10
558.569650
 20
599.189414
 30
0.0
  0
SPLINE
  5
17d
100
AcDbEntity
  8
Layer_1
 62
7
100
AcDbSpline
 70
8
 71
3
 72
8
 73
4
 74
0
 40
0
 40
0
 40
0
 40
0
 40
1
 40
1
 40
1
 40
1
 10
558.569650
 20
599.189414
 30
0.0
 10
570.019776
 20
622.438129
 30
0.0
 10
574.663890
 20
642.781786
 30
0.0
 10
574.663890
 20
669.689427
 30
0.0
  0
SPLINE
  5
17e
100
AcDbEntity
  8
Layer_1
 62
7
100
AcDbSpline
 70
8
 71
3
 72
8
 73
4
 74
0
 40
0
 40
0
 40
0
 40
0
 40
1
 40
1
 40
1
 40
1
 10
574.663890
 20
669.689427
 30
0.0
 10
574.663890
 20
695.212665
 30
0.0
 10
570.322942
 20
715.510562
 30
0.0
 10
560.324523
 20
736.754369
 30
0.0
  0
SPLINE
  5
17f
100
AcDbEntity
  8
Layer_1
 62
7
100
AcDbSpline
 70
8
 71
3
 72
8
 73
4
 74
0
 40
0
 40
0
 40
0
 40
0
 40
1
 40
1
 40
1
 40
1
 10
560.324523
 20
736.754369
 30
0.0
 10
543.987326
 20
771.466371
 30
0.0
 10
519.322876
 20
796.553583
 30
0.0
 10
485.038885
 20
813.327610
 30
0.0
  0
SPLINE
  5
180
100
AcDbEntity
  8
Layer_1
 62
7
100
AcDbSpline
 70
8
 71
3
 72
8
 73
4
 74
0
 40
0
 40
0
 40
0
 40
0
 40
1
 40
1
 40
1
 40
1
 10
485.038885
 20
813.327610
 30
0.0
 10
468.612057
 20
821.364695
 30
0.0
 10
451.948904
 20
826.251698
 30
0.0
 10
434.038876
 20
828.285131
 30
0.0
  0
SPLINE
  5
181
100
AcDbEntity
  8
Layer_1
 62
7
100
AcDbSpline
 70
8
 71
3
 72
8
 73
4
 74
0
 40
0
 40
0
 40
0
 40
0
 40
1
 40
1
 40
1
 40
1
 10
434.038876
 20
828.285131
 30
0.0
 10
429.639449
 20
828.784908
 30
0.0
 10
422.700661
 20
829.032523
 30
0.0
 10
415.710765
 20
829.029271
 30
0.0
  0
LWPOLYLINE
  5
182
100
AcDbEntity
  8
Layer_1
 62
7
100
AcDbPolyline
 90
3
 70
0
 10
261.780494
 20
649.626803
 30
0.0
 10
257.413796
 20
650.023795
 30
0.0
 10
257.419749
 20
647.857276
 30
0.0
  0
SPLINE
  5
183
100
AcDbEntity
  8
Layer_1
 62
7
100
AcDbSpline
 70
8
 71
3
 72
8
 73
4
 74
0
 40
0
 40
0
 40
0
 40
0
 40
1
 40
1
 40
1
 40
1
 10
548.025619
 20
685.806990
 30
0.0
 10
552.509235
 20
685.757894
 30
0.0
 10
557.000816
 20
683.962021
 30
0.0
 10
560.191153
 20
680.328473
 30
0.0
  0
SPLINE
  5
184
100
AcDbEntity
  8
Layer_1
 62
7
100
AcDbSpline
 70
8
 71
3
 72
8
 73
4
 74
0
 40
0
 40
0
 40
0
 40
0
 40
1
 40
1
 40
1
 40
1
 10
560.191153
 20
680.328473
 30
0.0
 10
564.604384
 20
675.302029
 30
0.0
 10
565.299524
 20
668.823092
 30
0.0
 10
562.101307
 20
662.515965
 30
0.0
  0
SPLINE
  5
185
100
AcDbEntity
  8
Layer_1
 62
7
100
AcDbSpline
 70
8
 71
3
 72
8
 73
4
 74
0
 40
0
 40
0
 40
0
 40
0
 40
1
 40
1
 40
1
 40
1
 10
562.101307
 20
662.515965
 30
0.0
 10
559.221052
 20
656.836016
 30
0.0
 10
555.134060
 20
654.101206
 30
0.0
 10
548.960173
 20
653.721052
 30
0.0
  0
SPLINE
  5
186
100
AcDbEntity
  8
Layer_1
 62
7
100
AcDbSpline
 70
8
 71
3
 72
8
 73
4
 74
0
 40
0
 40
0
 40
0
 40
0
 40
1
 40
1
 40
1
 40
1
 10
548.960173
 20
653.721052
 30
0.0
 10
544.940759
 20
653.473587
 30
0.0
 10
543.712564
 20
653.735225
 30
0.0
 10
540.163786
 20
655.593109
 30
0.0
  0
SPLINE
  5
187
100
AcDbEntity
  8
Layer_1
 62
7
100
AcDbSpline
 70
8
 71
3
 72
8
 73
4
 74
0
 40
0
 40
0
 40
0
 40
0
 40
1
 40
1
 40
1
 40
1
 10
540.163786
 20
655.593109
 30
0.0
 10
534.538942
 20
658.538277
 30
0.0
 10
531.956381
 20
663.090945
 30
0.0
 10
531.931380
 20
670.105329
 30
0.0
  0
SPLINE
  5
188
100
AcDbEntity
  8
Layer_1
 62
7
100
AcDbSpline
 70
8
 71
3
 72
8
 73
4
 74
0
 40
0
 40
0
 40
0
 40
0
 40
1
 40
1
 40
1
 40
1
 10
531.931380
 20
670.105329
 30
0.0
 10
531.917206
 20
674.278265
 30
0.0
 10
532.247839
 20
675.548649
 30
0.0
 10
534.127181
 20
678.512069
 30
0.0
  0
SPLINE
  5
189
100
AcDbEntity
  8
Layer_1
 62
7
100
AcDbSpline
 70
8
 71
3
 72
8
 73
4
 74
0
 40
0
 40
0
 40
0
 40
0
 40
1
 40
1
 40
1
 40
1
 10
534.127181
 20
678.512069
 30
0.0
 10
537.214847
 20
683.380797
 30
0.0
 10
542.614365
 20
685.866231
 30
0.0
 10
548.025619
 20
685.806990
 30
0.0
  0
LWPOLYLINE
  5
18a
100
AcDbEntity
  8
Layer_1
 62
7
100
AcDbPolyline
 90
2
 70
0
 10
415.710765
 20
829.029271
 30
0.0
 10
415.710680
 20
829.029158
 30
0.0
  0
LWPOLYLINE
  5
18b
100
AcDbEntity
  8
Layer_1
 62
7
100
AcDbPolyline
 90
1
 70
1
 10
548.025619
 20
685.806990
 30
0.0
  0
ENDSEC
  0
SECTION
  2
OBJECTS
  0
DICTIONARY
  5
C
330
0
100
AcDbDictionary
  3
ACAD_GROUP
350
D
  3
ACAD_MLINESTYLE
350
17
  0
DICTIONARY
  5
D
330
C
100
AcDbDictionary
  0
DICTIONARY
  5
1A
330
C
100
AcDbDictionary
  0
DICTIONARY
  5
17
330
C
100
AcDbDictionary
  3
STANDARD
350
18
  0
DICTIONARY
  5
19
330
C
100
AcDbDictionary
  0
ENDSEC
  0
EOF
