0
SECTION
2
HEADER
9
$INSUNITS
70
4
9
$ACADVER
1
AC1014
9
$HANDSEED
5
FFFF
0
ENDSEC
0
SECTION
2
TABLES
0
TABLE
2
VPORT
5
8
100
AcDbSymbolTable
0
ENDTAB
0
TABLE
2
LTYPE
5
5
100
AcDbSymbolTable
0
LTYPE
5
14
100
AcDbSymbolTableRecord
100
AcDbLinetypeTableRecord
2
BYBLOCK
70
0
0
LTYPE
5
15
100
AcDbSymbolTableRecord
100
AcDbLinetypeTableRecord
2
BYLAYER
70
0
0
ENDTAB
0
TABLE
2
LAYER
5
2
100
AcDbSymbolTable
70
2
0
LAYER
5
50
100
AcDbSymbolTableRecord
100
AcDbLayerTableRecord
2
0
70
0
6
CONTINUOUS
0
ENDTAB
0
TABLE
2
STYLE
5
3
100
AcDbSymbolTable
70
1
0
STYLE
5
11
100
AcDbSymbolTableRecord
100
AcDbTextStyleTableRecord
2
STANDARD
70
0
0
ENDTAB
0
TABLE
2
VIEW
5
6
100
AcDbSymbolTable
70
0
0
ENDTAB
0
TABLE
2
UCS
5
7
100
AcDbSymbolTable
70
0
0
ENDTAB
0
TABLE
2
APPID
5
9
100
AcDbSymbolTable
70
2
0
APPID
5
12
100
AcDbSymbolTableRecord
100
AcDbRegAppTableRecord
2
ACAD
70
0
0
ENDTAB
0
TABLE
2
DIMSTYLE
5
A
100
AcDbSymbolTable
70
1
0
ENDTAB
0
TABLE
2
BLOCK_RECORD
5
1
100
AcDbSymbolTable
70
1
0
BLOCK_RECORD
5
1F
100
AcDbSymbolTableRecord
100
AcDbBlockTableRecord
2
*MODEL_SPACE
0
BLOCK_RECORD
5
1B
100
AcDbSymbolTableRecord
100
AcDbBlockTableRecord
2
*PAPER_SPACE
0
ENDTAB
0
ENDSEC
0
SECTION
2
BLOCKS
0
BLOCK
5
20
100
AcDbEntity
100
AcDbBlockBegin
2
*MODEL_SPACE
0
ENDBLK
5
21
100
AcDbEntity
100
AcDbBlockEnd
0
BLOCK
5
1C
100
AcDbEntity
100
AcDbBlockBegin
2
*PAPER_SPACE
0
ENDBLK
5
1D
100
AcDbEntity
100
AcDbBlockEnd
0
ENDSEC
0
SECTION
2
ENTITIES
0
CIRCLE
5
100
100
AcDbEntity
8
0
100
AcDbCircle
10
0.037507404890213536
20
0.01453435366928435
30
0
40
2
210
0
220
-0
230
1
0
SPLINE
5
101
100
AcDbEntity
8
0
100
AcDbSpline
70
0
71
3
72
8
73
4
74
0
42
0.000000001
43
0.0000000001
44
0.0000000001
40
0
40
0
40
0
40
0
40
1
40
1
40
1
40
1
10
10.211057197405013
20
4.7701327190340326
30
0
10
7.0962549474050363
20
4.7570579690340242
30
0
10
4.7876274474050362
20
7.0666514690340154
30
0
10
4.7922336974050417
20
10.191519469034027
30
0
0
SPLINE
5
102
100
AcDbEntity
8
0
100
AcDbSpline
70
0
71
3
72
8
73
4
74
0
42
0.000000001
43
0.0000000001
44
0.0000000001
40
0
40
0
40
0
40
0
40
1
40
1
40
1
40
1
10
4.7922336974050417
20
10.191519469034027
30
0
10
4.7957061974050497
20
12.551167969034005
30
0
10
4.8309476974050369
20
12.597840969034017
30
0
10
12.382321947405019
20
20.130118219033982
30
0
0
SPLINE
5
103
100
AcDbEntity
8
0
100
AcDbSpline
70
0
71
3
72
8
73
4
74
0
42
0.000000001
43
0.0000000001
44
0.0000000001
40
0
40
0
40
0
40
0
40
1
40
1
40
1
40
1
10
12.382321947405019
20
20.130118219033982
30
0
10
16.090079697405002
20
23.828498219033918
30
0
10
19.123898947404996
20
26.91917596903394
30
0
10
19.123898947404996
20
26.99840446903394
30
0
0
SPLINE
5
104
100
AcDbEntity
8
0
100
AcDbSpline
70
0
71
3
72
8
73
4
74
0
42
0.000000001
43
0.0000000001
44
0.0000000001
40
0
40
0
40
0
40
0
40
1
40
1
40
1
40
1
10
19.123898947404996
20
26.99840446903394
30
0
10
19.123898947404996
20
27.077632719033918
30
0
10
18.765304947405006
20
27.387078969033954
30
0
10
18.32702394740501
20
27.686148219033939
30
0
0
SPLINE
5
105
100
AcDbEntity
8
0
100
AcDbSpline
70
0
71
3
72
8
73
4
74
0
42
0.000000001
43
0.0000000001
44
0.0000000001
40
0
40
0
40
0
40
0
40
1
40
1
40
1
40
1
10
18.32702394740501
20
27.686148219033939
30
0
10
16.750028447405008
20
28.762228719033935
30
0
10
16.888685697405002
20
28.765893219033948
30
0
10
15.181637947405013
20
27.60338446903393
30
0
0
SPLINE
5
106
100
AcDbEntity
8
0
100
AcDbSpline
70
0
71
3
72
8
73
4
74
0
42
0.000000001
43
0.0000000001
44
0.0000000001
40
0
40
0
40
0
40
0
40
1
40
1
40
1
40
1
10
15.181637947405013
20
27.60338446903393
30
0
10
13.189286197405021
20
26.246582719033956
30
0
10
9.9179844474050327
20
24.68416921903394
30
0
10
7.7801491974050307
20
24.068350219033942
30
0
0
SPLINE
5
107
100
AcDbEntity
8
0
100
AcDbSpline
70
0
71
3
72
8
73
4
74
0
42
0.000000001
43
0.0000000001
44
0.0000000001
40
0
40
0
40
0
40
0
40
1
40
1
40
1
40
1
10
7.7801491974050307
20
24.068350219033942
30
0
10
-0.096548052594922495
20
21.799431219033963
30
0
10
-8.2206735525948993
20
23.056057969033972
30
0
10
-14.994143052594868
20
27.590933219033928
30
0
0
LINE
5
108
100
AcDbEntity
8
0
100
AcDbLine
10
-14.994143052594868
20
27.590933219033928
30
0
11
-16.569948802594876
21
28.645986969033927
31
0
0
LINE
5
109
100
AcDbEntity
8
0
100
AcDbLine
10
-16.569948802594876
20
28.645986969033927
30
0
11
-17.26281980259488
21
28.25633871903392
31
0
0
SPLINE
5
110
100
AcDbEntity
8
0
100
AcDbSpline
70
0
71
3
72
8
73
4
74
0
42
0.000000001
43
0.0000000001
44
0.0000000001
40
0
40
0
40
0
40
0
40
1
40
1
40
1
40
1
10
-17.26281980259488
20
28.25633871903392
30
0
10
-17.644045552594871
20
28.042074969033948
30
0
10
-18.198396802594878
20
27.670828469033921
30
0
10
-18.494386802594871
20
27.431265469033974
30
0
0
LINE
5
111
100
AcDbEntity
8
0
100
AcDbLine
10
-18.494386802594871
20
27.431265469033974
30
0
11
-19.032350802594866
21
26.995474719033972
31
0
0
LINE
5
112
100
AcDbEntity
8
0
100
AcDbLine
10
-19.032350802594866
20
26.995474719033972
30
0
11
-12.165163052594892
21
20.09349671903399
31
0
0
SPLINE
5
113
100
AcDbEntity
8
0
100
AcDbSpline
70
0
71
3
72
8
73
4
74
0
42
0.000000001
43
0.0000000001
44
0.0000000001
40
0
40
0
40
0
40
0
40
1
40
1
40
1
40
1
10
-12.165163052594892
20
20.09349671903399
30
0
10
-4.5197993025949224
20
12.409516969034012
30
0
10
-4.5819800525949184
20
12.491832969033997
30
0
10
-4.6087673025949272
20
10.073599719034014
30
0
0
ELLIPSE
5
114
100
AcDbEntity
8
0
100
AcDbEllipse
10
-15.573500056019189
20
13.364939588318052
30
0
11
10.276249937864058
21
-5.9130458926294853
31
0.0
40
0.64691348642914892
41
6.0304715462745326
42
6.6312120335776719
0
SPLINE
5
115
100
AcDbEntity
8
0
100
AcDbSpline
70
0
71
3
72
8
73
4
74
0
42
0.000000001
43
0.0000000001
44
0.0000000001
40
0
40
0
40
0
40
0
40
1
40
1
40
1
40
1
10
-6.580081302594909
20
5.9775302190340174
30
0
10
-7.718477052594892
20
5.0776799690340146
30
0
10
-8.5882300525948985
20
4.7720569690340175
30
0
10
-10.032350802594898
20
4.7639072190340448
30
0
0
SPLINE
5
116
100
AcDbEntity
8
0
100
AcDbSpline
70
0
71
3
72
8
73
4
74
0
42
0.000000001
43
0.0000000001
44
0.0000000001
40
0
40
0
40
0
40
0
40
1
40
1
40
1
40
1
10
-10.032350802594898
20
4.7639072190340448
30
0
10
-12.318834302594901
20
4.7509742190340409
30
0
10
-12.318148302594896
20
4.7502727190340499
30
0
10
-19.935427302594864
20
12.326162969034014
30
0
0
LINE
5
117
100
AcDbEntity
8
0
100
AcDbLine
10
-19.935427302594864
20
12.326162969034014
30
0
11
-26.838503802594857
21
19.191519469033999
31
0
0
LINE
5
118
100
AcDbEntity
8
0
100
AcDbLine
10
-26.838503802594857
20
19.191519469033999
30
0
11
-27.272829552594846
21
18.653555469034004
31
0
0
SPLINE
5
119
100
AcDbEntity
8
0
100
AcDbSpline
70
0
71
3
72
8
73
4
74
0
42
0.000000001
43
0.0000000001
44
0.0000000001
40
0
40
0
40
0
40
0
40
1
40
1
40
1
40
1
10
-27.272829552594846
20
18.653555469034004
30
0
10
-27.511811552594843
20
18.357561719034003
30
0
10
-27.880421802594846
20
17.807309719033977
30
0
10
-28.092043552594852
20
17.430777219033995
30
0
0
LINE
5
120
100
AcDbEntity
8
0
100
AcDbLine
10
-28.092043552594852
20
17.430777219033995
30
0
11
-28.476931302594846
21
16.745962969034018
31
0
0
LINE
5
121
100
AcDbEntity
8
0
100
AcDbLine
10
-28.476931302594846
20
16.745962969034018
30
0
11
-27.396609302594843
21
15.128409219034001
31
0
0
SPLINE
5
122
100
AcDbEntity
8
0
100
AcDbSpline
70
0
71
3
72
8
73
4
74
0
42
0.000000001
43
0.0000000001
44
0.0000000001
40
0
40
0
40
0
40
0
40
1
40
1
40
1
40
1
10
-27.396609302594843
20
15.128409219034001
30
0
10
-23.964801552594857
20
9.9900307190340278
30
0
10
-22.334685552594866
20
3.7971654690340095
30
0
10
-22.873171802594854
20
-2.0560412809659612
30
0
0
SPLINE
5
123
100
AcDbEntity
8
0
100
AcDbSpline
70
0
71
3
72
8
73
4
74
0
42
0.000000001
43
0.0000000001
44
0.0000000001
40
0
40
0
40
0
40
0
40
1
40
1
40
1
40
1
10
-22.873171802594854
20
-2.0560412809659612
30
0
10
-23.097346302594843
20
-4.4927805309659474
30
0
10
-23.823189802594857
20
-7.8313872809659468
30
0
10
-24.280886552594865
20
-8.5299217809659424
30
0
0
SPLINE
5
124
100
AcDbEntity
8
0
100
AcDbSpline
70
0
71
3
72
8
73
4
74
0
42
0.000000001
43
0.0000000001
44
0.0000000001
40
0
40
0
40
0
40
0
40
1
40
1
40
1
40
1
10
-24.280886552594865
20
-8.5299217809659424
30
0
10
-24.43706705259487
20
-8.7682800309659328
30
0
10
-24.512678302594875
20
-9.0155250309659287
30
0
10
-24.448977552594862
20
-9.0792337809659109
30
0
0
SPLINE
5
125
100
AcDbEntity
8
0
100
AcDbSpline
70
0
71
3
72
8
73
4
74
0
42
0.000000001
43
0.0000000001
44
0.0000000001
40
0
40
0
40
0
40
0
40
1
40
1
40
1
40
1
10
-24.448977552594862
20
-9.0792337809659109
30
0
10
-24.262472802594868
20
-9.2657392809659367
30
0
10
-26.301101052594866
20
-13.339975530965944
30
0
10
-27.383059052594856
20
-14.943371530965912
30
0
0
SPLINE
5
126
100
AcDbEntity
8
0
100
AcDbSpline
70
0
71
3
72
8
73
4
74
0
42
0.000000001
43
0.0000000001
44
0.0000000001
40
0
40
0
40
0
40
0
40
1
40
1
40
1
40
1
10
-27.383059052594856
20
-14.943371530965912
30
0
10
-27.929293052594861
20
-15.752854280965911
30
0
10
-28.375313302594858
20
-16.503737530965871
30
0
10
-28.374392052594857
20
-16.611829780965898
30
0
0
SPLINE
5
127
100
AcDbEntity
8
0
100
AcDbSpline
70
0
71
3
72
8
73
4
74
0
42
0.000000001
43
0.0000000001
44
0.0000000001
40
0
40
0
40
0
40
0
40
1
40
1
40
1
40
1
10
-28.374392052594857
20
-16.611829780965898
30
0
10
-28.373400052594864
20
-16.719921780965905
30
0
10
-28.096298302594871
20
-17.255776280965868
30
0
10
-27.758425552594854
20
-17.802749530965912
30
0
0
SPLINE
5
128
100
AcDbEntity
8
0
100
AcDbSpline
70
0
71
3
72
8
73
4
74
0
42
0.000000001
43
0.0000000001
44
0.0000000001
40
0
40
0
40
0
40
0
40
1
40
1
40
1
40
1
10
-27.758425552594854
20
-17.802749530965912
30
0
10
-27.31832005259486
20
-18.515209280965898
30
0
10
-27.044053052594865
20
-18.781063530965881
30
0
10
-26.791262302594863
20
-18.740244780965895
30
0
0
SPLINE
5
129
100
AcDbEntity
8
0
100
AcDbSpline
70
0
71
3
72
8
73
4
74
0
42
0.000000001
43
0.0000000001
44
0.0000000001
40
0
40
0
40
0
40
0
40
1
40
1
40
1
40
1
10
-26.791262302594863
20
-18.740244780965895
30
0
10
-26.597190302594864
20
-18.708921780965866
30
0
10
-23.464289052594864
20
-15.719830530965888
30
0
10
-19.829226552594896
20
-12.097911530965906
30
0
0
ELLIPSE
5
130
100
AcDbEntity
8
0
100
AcDbEllipse
10
-57.609828365082443
20
-52.833427306340951
30
0
11
45.309479951645137
21
47.754683114123814
31
0.0
40
0.017853600385037593
41
0.049867315775871841
42
0.56623092986221812
0
SPLINE
5
131
100
AcDbEntity
8
0
100
AcDbSpline
70
0
71
3
72
8
73
4
74
0
42
0.000000001
43
0.0000000001
44
0.0000000001
40
0
40
0
40
0
40
0
40
1
40
1
40
1
40
1
10
-12.399172302594916
20
-5.0977860309659562
30
0
10
-9.5322068025949136
20
-3.6479427809659315
30
0
10
-5.7027798025949394
20
-5.3205680309659442
30
0
10
-4.8262965525949397
20
-8.4057715309659553
30
0
0
SPLINE
5
132
100
AcDbEntity
8
0
100
AcDbSpline
70
0
71
3
72
8
73
4
74
0
42
0.000000001
43
0.0000000001
44
0.0000000001
40
0
40
0
40
0
40
0
40
1
40
1
40
1
40
1
10
-4.8262965525949397
20
-8.4057715309659553
30
0
10
-4.5076393025949457
20
-9.5274337809659126
30
0
10
-4.5589328025949349
20
-11.087934530965926
30
0
10
-4.9482453025949447
20
-12.12098578096592
30
0
0
SPLINE
5
133
100
AcDbEntity
8
0
100
AcDbSpline
70
0
71
3
72
8
73
4
74
0
42
0.000000001
43
0.0000000001
44
0.0000000001
40
0
40
0
40
0
40
0
40
1
40
1
40
1
40
1
10
-4.9482453025949447
20
-12.12098578096592
30
0
10
-5.2528045525949452
20
-12.929143030965911
30
0
10
-6.2293698025949418
20
-13.990335280965915
30
0
10
-12.026369552594911
20
-19.813980030965883
30
0
0
SPLINE
5
134
100
AcDbEntity
8
0
100
AcDbSpline
70
0
71
3
72
8
73
4
74
0
42
0.000000001
43
0.0000000001
44
0.0000000001
40
0
40
0
40
0
40
0
40
1
40
1
40
1
40
1
10
-12.026369552594911
20
-19.813980030965883
30
0
10
-15.725018802594892
20
-23.529626530965857
30
0
10
-18.751100802594891
20
-26.702361280965874
30
0
10
-18.751100802594891
20
-26.864269030965858
30
0
0
SPLINE
5
135
100
AcDbEntity
8
0
100
AcDbSpline
70
0
71
3
72
8
73
4
74
0
42
0.000000001
43
0.0000000001
44
0.0000000001
40
0
40
0
40
0
40
0
40
1
40
1
40
1
40
1
10
-18.751100802594891
20
-26.864269030965858
30
0
10
-18.751100802594891
20
-27.170914030965861
30
0
10
-17.042725052594889
20
-28.339737530965863
30
0
10
-16.594484802594884
20
-28.339737530965863
30
0
0
SPLINE
5
136
100
AcDbEntity
8
0
100
AcDbSpline
70
0
71
3
72
8
73
4
74
0
42
0.000000001
43
0.0000000001
44
0.0000000001
40
0
40
0
40
0
40
0
40
1
40
1
40
1
40
1
10
-16.594484802594884
20
-28.339737530965863
30
0
10
-16.453250052594903
20
-28.339737530965863
30
0
10
-15.636191052594892
20
-27.868378530965856
30
0
10
-14.778810552594894
20
-27.292371530965873
30
0
0
SPLINE
5
137
100
AcDbEntity
8
0
100
AcDbSpline
70
0
71
3
72
8
73
4
74
0
42
0.000000001
43
0.0000000001
44
0.0000000001
40
0
40
0
40
0
40
0
40
1
40
1
40
1
40
1
10
-14.778810552594894
20
-27.292371530965873
30
0
10
-11.824708802594923
20
-25.307757280965866
30
0
10
-8.0984358025949099
20
-23.812729780965867
30
0
10
-4.4494660525949392
20
-23.147962780965869
30
0
0
SPLINE
5
138
100
AcDbEntity
8
0
100
AcDbSpline
70
0
71
3
72
8
73
4
74
0
42
0.000000001
43
0.0000000001
44
0.0000000001
40
0
40
0
40
0
40
0
40
1
40
1
40
1
40
1
10
-4.4494660525949392
20
-23.147962780965869
30
0
10
-2.1549485525949486
20
-22.730192780965872
30
0
10
2.2989529474050308
20
-22.731929030965876
30
0
10
4.6343961974050352
20
-23.152214780965874
30
0
0
ELLIPSE
5
139
100
AcDbEntity
8
0
100
AcDbEllipse
10
5.5069006641928127
20
-37.187630648686387
30
0
11
17.761484382003417
21
-7.8049169451966147
31
0.0
40
0.68302420031285582
41
1.3177347703715343
42
1.9094495771277069
0
LINE
5
140
100
AcDbEntity
8
0
100
AcDbLine
10
15.114987697404993
20
-27.396601280965839
30
0
11
15.114987697405002
21
-27.396232780965839
31
0
0
SPLINE
5
141
100
AcDbEntity
8
0
100
AcDbSpline
70
0
71
3
72
8
73
4
74
0
42
0.000000001
43
0.0000000001
44
0.0000000001
40
0
40
0
40
0
40
0
40
1
40
1
40
1
40
1
10
15.114987697405002
20
-27.396232780965839
30
0
10
16.023559697404988
20
-28.003052530965835
30
0
10
16.854294447404989
20
-28.447390280965863
30
0
10
16.961057197404983
20
-28.383540030965861
30
0
0
SPLINE
5
142
100
AcDbEntity
8
0
100
AcDbSpline
70
0
71
3
72
8
73
4
74
0
42
0.000000001
43
0.0000000001
44
0.0000000001
40
0
40
0
40
0
40
0
40
1
40
1
40
1
40
1
10
16.961057197404983
20
-28.383540030965861
30
0
10
18.127743447404985
20
-27.68546578096587
30
0
10
19.123898947404978
20
-26.987576030965883
30
0
10
19.123898947404978
20
-26.868159530965876
30
0
0
SPLINE
5
143
100
AcDbEntity
8
0
100
AcDbSpline
70
0
71
3
72
8
73
4
74
0
42
0.000000001
43
0.0000000001
44
0.0000000001
40
0
40
0
40
0
40
0
40
1
40
1
40
1
40
1
10
19.123898947404978
20
-26.868159530965876
30
0
10
19.123898947404978
20
-26.786897280965878
30
0
10
16.125047697404984
20
-23.730624280965856
30
0
10
12.459958697405007
20
-20.076780030965882
30
0
0
SPLINE
5
144
100
AcDbEntity
8
0
100
AcDbSpline
70
0
71
3
72
8
73
4
74
0
42
0.000000001
43
0.0000000001
44
0.0000000001
40
0
40
0
40
0
40
0
40
1
40
1
40
1
40
1
10
12.459958697405007
20
-20.076780030965882
30
0
10
5.4146891974050249
20
-13.053123530965927
30
0
10
5.0146596974050262
20
-12.564118780965909
30
0
10
4.7552456974050195
20
-10.658195030965922
30
0
0
SPLINE
5
145
100
AcDbEntity
8
0
100
AcDbSpline
70
0
71
3
72
8
73
4
74
0
42
0.000000001
43
0.0000000001
44
0.0000000001
40
0
40
0
40
0
40
0
40
1
40
1
40
1
40
1
10
4.7552456974050195
20
-10.658195030965922
30
0
10
4.6399591974050303
20
-9.8111887809659226
30
0
10
4.7698584474050243
20
-9.0958587809658997
30
0
10
5.3012671974050285
20
-7.649041530965941
30
0
0
SPLINE
5
146
100
AcDbEntity
8
0
100
AcDbSpline
70
0
71
3
72
8
73
4
74
0
42
0.000000001
43
0.0000000001
44
0.0000000001
40
0
40
0
40
0
40
0
40
1
40
1
40
1
40
1
10
5.3012671974050285
20
-7.649041530965941
30
0
10
5.5618491974050333
20
-6.9395935309659507
30
0
10
7.1957941974050321
20
-5.2774600309659592
30
0
10
7.6325661974050263
20
-5.2774600309659592
30
0
0
SPLINE
5
147
100
AcDbEntity
8
0
100
AcDbSpline
70
0
71
3
72
8
73
4
74
0
42
0.000000001
43
0.0000000001
44
0.0000000001
40
0
40
0
40
0
40
0
40
1
40
1
40
1
40
1
10
7.6325661974050263
20
-5.2774600309659592
30
0
10
7.8225649474050218
20
-5.2774600309659592
30
0
10
8.1865504474050166
20
-5.1297962809659525
30
0
10
8.4415259474050153
20
-4.9493285309659329
30
0
0
SPLINE
5
148
100
AcDbEntity
8
0
100
AcDbSpline
70
0
71
3
72
8
73
4
74
0
42
0.000000001
43
0.0000000001
44
0.0000000001
40
0
40
0
40
0
40
0
40
1
40
1
40
1
40
1
10
8.4415259474050153
20
-4.9493285309659329
30
0
10
8.7881741974050254
20
-4.7039830309659481
30
0
10
9.2598939474050201
20
-4.6239820309659452
30
0
10
10.31139919740502
20
-4.6325570309659669
30
0
0
SPLINE
5
149
100
AcDbEntity
8
0
100
AcDbSpline
70
0
71
3
72
8
73
4
74
0
42
0.000000001
43
0.0000000001
44
0.0000000001
40
0
40
0
40
0
40
0
40
1
40
1
40
1
40
1
10
10.31139919740502
20
-4.6325570309659669
30
0
10
12.582986447405018
20
-4.6510530309659659
30
0
10
12.739781447405019
20
-4.7716387809659766
30
0
10
20.154050197404992
20
-12.20178003096593
30
0
0
SPLINE
5
150
100
AcDbEntity
8
0
100
AcDbSpline
70
0
71
3
72
8
73
4
74
0
42
0.000000001
43
0.0000000001
44
0.0000000001
40
0
40
0
40
0
40
0
40
1
40
1
40
1
40
1
10
20.154050197404992
20
-12.20178003096593
30
0
10
23.762870197404968
20
-15.81831328096591
30
0
10
26.857673947404965
20
-18.777463530965885
30
0
10
27.031125947404966
20
-18.777463530965885
30
0
0
SPLINE
5
151
100
AcDbEntity
8
0
100
AcDbSpline
70
0
71
3
72
8
73
4
74
0
42
0.000000001
43
0.0000000001
44
0.0000000001
40
0
40
0
40
0
40
0
40
1
40
1
40
1
40
1
10
27.031125947404966
20
-18.777463530965885
30
0
10
27.450603197404966
20
-18.777463530965885
30
0
10
28.621063197404961
20
-16.749721030965912
30
0
10
28.387204947404953
20
-16.428215530965904
30
0
0
SPLINE
5
152
100
AcDbEntity
8
0
100
AcDbSpline
70
0
71
3
72
8
73
4
74
0
42
0.000000001
43
0.0000000001
44
0.0000000001
40
0
40
0
40
0
40
0
40
1
40
1
40
1
40
1
10
28.387204947404953
20
-16.428215530965904
30
0
10
24.513225697404977
20
-11.102299030965934
30
0
10
22.686399197404981
20
-5.8190652809659626
30
0
10
22.686399197404981
20
0.057867469034018626
30
0
0
SPLINE
5
153
100
AcDbEntity
8
0
100
AcDbSpline
70
0
71
3
72
8
73
4
74
0
42
0.000000001
43
0.0000000001
44
0.0000000001
40
0
40
0
40
0
40
0
40
1
40
1
40
1
40
1
10
22.686399197404981
20
0.057867469034018626
30
0
10
22.686399197404981
20
4.0800014690340181
30
0
10
23.479041947404973
20
7.6147572190340229
30
0
10
25.217282947404982
20
11.342659969034008
30
0
0
SPLINE
5
154
100
AcDbEntity
8
0
100
AcDbSpline
70
0
71
3
72
8
73
4
74
0
42
0.000000001
43
0.0000000001
44
0.0000000001
40
0
40
0
40
0
40
0
40
1
40
1
40
1
40
1
10
25.217282947404982
20
11.342659969034008
30
0
10
26.028090197404985
20
13.081556969034008
30
0
10
27.472930197404963
20
15.472506219033999
30
0
10
28.173703447404961
20
16.235237719033986
30
0
0
SPLINE
5
155
100
AcDbEntity
8
0
100
AcDbSpline
70
0
71
3
72
8
73
4
74
0
42
0.000000001
43
0.0000000001
44
0.0000000001
40
0
40
0
40
0
40
0
40
1
40
1
40
1
40
1
10
28.173703447404961
20
16.235237719033986
30
0
10
28.547189447404968
20
16.641761469033987
30
0
10
28.548988697404969
20
16.675461719033976
30
0
10
28.233762697404963
20
17.37452021903399
30
0
0
SPLINE
5
156
100
AcDbEntity
8
0
100
AcDbSpline
70
0
71
3
72
8
73
4
74
0
42
0.000000001
43
0.0000000001
44
0.0000000001
40
0
40
0
40
0
40
0
40
1
40
1
40
1
40
1
10
28.233762697404963
20
17.37452021903399
30
0
10
28.055123197404967
20
17.770654219033993
30
0
10
27.709127197404975
20
18.341454719033987
30
0
10
27.465085447404967
20
18.643075219033999
30
0
0
LINE
5
157
100
AcDbEntity
8
0
100
AcDbLine
10
27.465085447404963
20
18.643075219033999
30
0
11
27.021604447404979
21
19.191519469033988
31
0
0
LINE
5
158
100
AcDbEntity
8
0
100
AcDbLine
10
27.021604447404979
20
19.191519469033988
30
0
11
20.21337644740499
21
12.403433219033984
31
0
0
SPLINE
5
159
100
AcDbEntity
8
0
100
AcDbSpline
70
0
71
3
72
8
73
4
74
0
42
0.000000001
43
0.0000000001
44
0.0000000001
40
0
40
0
40
0
40
0
40
1
40
1
40
1
40
1
10
20.21337644740499
20
12.403433219033984
30
0
10
12.600029947405016
20
4.8124017190340229
30
0
10
12.557679447405015
20
4.7799832190340386
30
0
10
10.211057197405013
20
4.7701327190340326
30
0
0
ENDSEC
0
SECTION
2
OBJECTS
0
DICTIONARY
5
C
100
AcDbDictionary
3
ACAD_GROUP
350
D
3
ACAD_MLINESTYLE
350
17
0
DICTIONARY
5
D
100
AcDbDictionary
0
DICTIONARY
5
1A
330
C
100
AcDbDictionary
0
DICTIONARY
5
17
100
AcDbDictionary
0
ENDSEC
0
EOF
